v -6.14286 -0.571429 0.53629
v -0.571429 -2.57143 0.0403226
v -7.57143 -8.14286 0.354839
v -5.28571 -9.57143 0.798387
v -4.28571 -8.57143 0.701613
v -10 -7 0.241935
v -5 -3 0.237903
v -1.57143 -5.28571 0.100806
v -9.85714 -9.57143 0.274194
v -8.42857 -8 0.846774
v -7.57143 -8.57143 0.391129
v -6.14286 -8.57143 0.794355
v -6.42857 -6.42857 0.16129
v -5.71429 -6.57143 0.016129
v -6.28571 -7.28571 0.00806452
v -8.42857 -7.57143 0.616935
v -10 -7.14286 0.233871
v -8.57143 -7.57143 0.616935
v -9.57143 -6.57143 0.689516
v -9.42857 -6.14286 0.645161
v -9.14286 -4.57143 0.245968
v -8.42857 -3.42857 0.322581
v -9.28571 -0.285714 0.0927419
v -5.71429 -3.85714 0.116935
v -3.42857 -0.428571 0.290323
v -3.71429 -0.428571 0.282258
v -2 -1.71429 0.399194
v -0.285714 -1.71429 0.165323
v -1 -3.28571 0.137097
v -2 -5.14286 0.189516
v -1.85714 -4.42857 0.116935
v -1.14286 -6.14286 0.209677
v -3.28571 -5.28571 0.41129
v -4.71429 -7.28571 0.262097
v -3 -8 0.0685484
v -3.85714 -9.42857 0.258065
v -9.57143 -9.85714 0.266129
v -9.57143 -10 0.266129
v -9.42857 -8.71429 0.512097
v -10 -8.14286 0.544355
v -9.14286 -7.42857 0.608871
v -8.85714 -9.71429 0.201613
v -7.85714 -9.57143 0.415323
v -7.28571 -8.85714 0.592742
v -6.14286 -10 0.528226
v -5.14286 -8.85714 0.625
v -6.71429 -7.28571 0.0322581
v -5.28571 -6.14286 0.169355
v -5.28571 -5.28571 0.145161
v -6.57143 -5.71429 0.524194
v -7 -5.28571 0.604839
v -8 -5.28571 0.399194
v -8 -5.14286 0.399194
v -9 -6 0.600806
v -9.57143 -6 0.653226
v -9 -5.28571 0.564516
v -9.28571 -5.28571 0.584677
v -10 -3.85714 0.266129
v -7.85714 -4.28571 0.100806
v -7.85714 -4.14286 0.100806
v -9 -2.57143 0.137097
v -10 -0.285714 0.16129
v -9.42857 -0.428571 0.0887097
v -7.85714 -1.42857 0.129032
v -6.85714 -1.28571 0.209677
v -6.57143 -0.285714 0.649194
v -6.42857 -0.714286 0.475806
v -6 -0.714286 0.584677
v -5.57143 -0.428571 0.302419
v -5.85714 -1.28571 0.524194
v -6 -2.42857 0.387097
v -6.85714 -3.14286 0.721774
v -7.14286 -3.14286 0.725806
v -5.85714 -4 0.129032
v -5.71429 -5 0.116935
v -4.71429 -4.57143 0.314516
v -3 -4.85714 0.229839
v -4.42857 -4.14286 0.258065
v -4.14286 -3.28571 0.0362903
v -4.42857 -0.571429 0.278226
v -3.57143 -0.428571 0.290323
v -3.71429 -0.285714 0.282258
v -3.85714 -2.42857 0.00403226
v -2.14286 -1.57143 0.375
v -2.14286 -1.14286 0.584677
v -2.42857 -0.428571 0.387097
v -1.57143 -0.714286 0.395161
v -0.857143 -0.857143 0.149194
v -0.142857 -0.571429 0.0766129
v -0.428571 -0.285714 0.116935
v -0.714286 -0.857143 0.133065
v -0.571429 -1.14286 0.112903
v -0.428571 -2.71429 0.0403226
v -1.42857 -3.57143 0.0282258
v -2 -4.28571 0.100806
v -2.42857 -4.57143 0.145161
v -1.71429 -4.85714 0.104839
v -0.428571 -6.42857 0.016129
v -1 -7.14286 0.487903
v -0.857143 -7.57143 0.451613
v -1.42857 -6.71429 0.366935
v -2.14286 -6.42857 0.520161
v -2.71429 -5.28571 0.459677
v -4.57143 -5.71429 0.58871
v -4.14286 -6.57143 0.342742
v -4.71429 -7 0.282258
v -3.85714 -7.14286 0.153226
v -3.57143 -7.42857 0.141129
v -4.28571 -8.14286 0.685484
v -4.28571 -8 0.697581
v -4.71429 -8.57143 0.685484
v -4.14286 -9 0.342742
v -1.57143 -9.57143 0.141129
v -1.28571 -9.71429 0.157258
v -1.42857 -9.28571 0.129032
v -1.28571 -9.28571 0.129032
v -10 -10 0.346774
v -9.71429 -9.71429 0.274194
v -10 -9.57143 0.274194
v -9.42857 -10 0.266129
v -9 -10 0.193548
v -8.85714 -10 0.193548
v -8.85714 -9.57143 0.21371
v -8.85714 -9.42857 0.21371
v -8.85714 -9.28571 0.193548
v -9.42857 -8.85714 0.608871
v -10 -9.42857 0.274194
v -9.85714 -9.14286 0.415323
v -10 -9 0.358871
v -10 -8.85714 0.358871
v -10 -8.57143 0.342742
v -9.57143 -8.42857 0.556452
v -9.85714 -8.28571 0.596774
v -9.85714 -8.14286 0.544355
v -9.42857 -8 0.830645
v -9.14286 -8 0.91129
v -9.28571 -8.71429 0.524194
v -9.42857 -8.57143 0.556452
v -8.42857 -8.71429 0.677419
v -8.28571 -8.71429 0.697581
v -8.42857 -8.42857 0.741935
v -8.57143 -8 0.846774
v -8 -7.71429 0.407258
v -7.71429 -8 0.379032
v -7.85714 -8 0.399194
v -7.71429 -8.14286 0.387097
v -8 -9 0.608871
v -8.28571 -9 0.653226
v -8.14286 -9 0.673387
v -8.42857 -9 0.653226
v -8.57143 -9.57143 0.177419
v -8.85714 -9.85714 0.193548
v -8.42857 -9.85714 0.209677
v -8.42857 -10 0.209677
v -7.57143 -9.57143 0.395161
v -6.42857 -9 0.794355
v -6.42857 -8.85714 0.794355
v -6.42857 -9.14286 0.802419
v -6.57143 -9.28571 0.794355
v -6.85714 -9.42857 0.798387
v -6.71429 -10 0.625
v -6.14286 -9.85714 0.528226
v -6.14286 -9.71429 0.483871
v -5.28571 -9.71429 0.814516
v -5.57143 -9.57143 0.782258
v -5.57143 -9.42857 0.782258
v -5.28571 -9.42857 0.798387
v -5.71429 -9.28571 0.774194
v -6.14286 -9.28571 0.709677
v -6 -9.14286 0.78629
v -5.85714 -8.71429 0.766129
v -5.71429 -8.85714 0.745968
v -5.57143 -8.57143 0.737903
v -6.57143 -8.85714 0.794355
v -7 -8.57143 0.677419
v -7.14286 -8.57143 0.669355
v -7 -7.42857 0.0483871
v -6.85714 -7.42857 0.0483871
v -6.14286 -7.28571 0.00806452
v -6.14286 -7 0.00403226
v -5.57143 -6.28571 0.0524194
v -5.28571 -5.14286 0.145161
v -7.85714 -5.28571 0.399194
v -8.28571 -5.14286 0.419355
v -8.85714 -5.28571 0.564516
v -8.85714 -5.14286 0.564516
v -8.71429 -7.42857 0.641129
v -8.28571 -6.71429 0.782258
v -9.28571 -6.57143 0.677419
v -9.28571 -6.42857 0.677419
v -9 -6.71429 0.657258
v -9 -6.85714 0.625
v -9.14286 -7.14286 0.576613
v -9.42857 -7 0.540323
v -10 -7.57143 0.225806
v -9.57143 -6.42857 0.689516
v -10 -6.42857 0.270161
v -10 -6.57143 0.270161
v -9.42857 -6 0.653226
v -9.57143 -6.14286 0.645161
v -9 -6.14286 0.620968
v -9 -6.28571 0.629032
v -8.85714 -6 0.600806
v -8.85714 -6.14286 0.620968
v -9 -5.57143 0.645161
v -9 -5.14286 0.564516
v -9.57143 -5.42857 0.657258
v -10 -5.28571 0.548387
v -10 -5.14286 0.548387
v -9.85714 -4.28571 0.274194
v -9.85714 -4.14286 0.274194
v -10 -4.14286 0.274194
v -9.28571 -4.28571 0.217742
v -9.14286 -4.42857 0.233871
v -8 -4.14286 0.100806
v -8 -3.85714 0.0846774
v -8.42857 -4.42857 0.189516
v -8.57143 -4.42857 0.189516
v -8.57143 -4.28571 0.221774
v -8.57143 -3.42857 0.322581
v -8.42857 -3.57143 0.290323
v -7.71429 -3.28571 0.5
v -8.42857 -2.85714 0.278226
v -8.57143 -2.85714 0.278226
v -9.42857 -2.71429 0.0967742
v -9 -3.71429 0.516129
v -10 -2.71429 0.209677
v -9.57143 -2.42857 0.116935
v -9.42857 -2.42857 0.116935
v -8.85714 -2.14286 0.254032
v -9.57143 -1.28571 0.0201613
v -10 -1.28571 0.00806452
v -9.57143 -0.285714 0.0887097
v -9.57143 -0.142857 0.0927419
v -9.28571 -0.428571 0.0927419
v -9.42857 -0.142857 0.0927419
v -9.42857 -0.285714 0.0887097
v -8.85714 -0.571429 0.100806
v -9 -1.14286 0.0362903
v -8.42857 -1 0.145161
v -8.14286 -1.14286 0.169355
v -8.14286 -0.714286 0.16129
v -8.42857 -0.857143 0.157258
v -8.71429 -0.714286 0.100806
v -8.57143 -0.428571 0.108871
v -8.28571 -0.428571 0.120968
v -8 -0.571429 0.149194
v -8.14286 -0.571429 0.169355
v -8.14286 -0.428571 0.165323
v -7.71429 -0.571429 0.197581
v -7.85714 -0.857143 0.153226
v -8 -0.857143 0.153226
v -8.14286 -0.857143 0.157258
v -7.85714 -1.14286 0.16129
v -8 -1.14286 0.16129
v -7.71429 -1.71429 0.149194
v -8 -1.42857 0.129032
v -8.57143 -1.42857 0.0403226
v -8.14286 -1.85714 0.125
v -8.57143 -2.28571 0.266129
v -6.42857 -2.42857 0.455645
v -6.42857 -2.14286 0.415323
v -7.14286 -2 0.306452
v -7.42857 -1.14286 0.217742
v -7.14286 -1.28571 0.233871
v -7.14286 -1.14286 0.229839
v -7.28571 -1 0.25
v -6.71429 -0.285714 0.637097
v -6.42857 -0.857143 0.459677
v -6.57143 -0.714286 0.475806
v -6.57143 -0.857143 0.459677
v -6.71429 -1.28571 0.229839
v -6 -1.28571 0.5
v -6 -1.14286 0.508065
v -6.28571 -1 0.467742
v -6 -0.285714 0.625
v -5.85714 -0.714286 0.544355
v -5.28571 -0.142857 0.302419
v -5.28571 -0.285714 0.270161
v -5.14286 -0.142857 0.302419
v -5.14286 -0.285714 0.270161
v -5.14286 -0.857143 0.475806
v -5.71429 -1.28571 0.53629
v -5.28571 -1.14286 0.544355
v -5.14286 -1.14286 0.544355
v -5.14286 -1 0.475806
v -5.85714 -1.42857 0.524194
v -6.28571 -2 0.383065
v -5.42857 -2.14286 0.467742
v -5.71429 -3.57143 0.125
v -5.71429 -3.71429 0.133065
v -6.57143 -3.14286 0.669355
v -7 -3.14286 0.721774
v -7.42857 -3.28571 0.544355
v -7 -3.28571 0.697581
v -6.85714 -3.28571 0.697581
v -7.42857 -4.57143 0.28629
v -6.71429 -4.85714 0.330645
v -5.85714 -4.42857 0.173387
v -5.57143 -4 0.120968
v -5.71429 -4 0.112903
v -5.28571 -4.28571 0.125
v -5.71429 -4.57143 0.149194
v -5.57143 -5 0.133065
v -4.57143 -4.42857 0.326613
v -4.71429 -4 0.330645
v -4.28571 -4.14286 0.25
v -4.28571 -5 0.471774
v -3.57143 -4.42857 0.334677
v -3.71429 -3.42857 0.0241935
v -2.71429 -3.28571 0.314516
v -2.71429 -3.14286 0.302419
v -2.71429 -3 0.306452
v -2.85714 -2.71429 0.314516
v -4.28571 -2.71429 0.0241935
v -4 -2.14286 0.00403226
v -5 -0.857143 0.475806
v -4.85714 -0.285714 0.306452
v -4.57143 -0.142857 0.241935
v -4.14286 -0.428571 0.262097
v -4.28571 -0.571429 0.258065
v -4.28571 -0.428571 0.262097
v -4.28571 -0.285714 0.262097
v -4.14286 -0.285714 0.262097
v -4 -0.142857 0.290323
v -4.28571 -0.714286 0.237903
v -4.42857 -0.714286 0.282258
v -3.28571 -1 0.403226
v -3.85714 -0.571429 0.270161
v -3.28571 -0.142857 0.306452
v -3.57143 -0.285714 0.290323
v -3.42857 -0.285714 0.290323
v -3.14286 -0.142857 0.314516
v -2.71429 -0.142857 0.375
v -2.85714 -0.285714 0.350806
v -2.71429 -0.285714 0.354839
v -3 -0.285714 0.342742
v -3.71429 -1.57143 0.141129
v -2.71429 -2.28571 0.41129
v -2.57143 -2.28571 0.375
v -2.28571 -2 0.366935
v -2.14286 -2 0.423387
v -2.14286 -2.14286 0.415323
v -1.42857 -2.14286 0.108871
v -1.42857 -2 0.100806
v -2 -1.57143 0.358871
v -2.14286 -1.71429 0.358871
v -2.14286 -1.85714 0.358871
v -2.42857 -1 0.584677
v -2.42857 -0.285714 0.387097
v -1.85714 -0.428571 0.334677
v -1.71429 -0.428571 0.354839
v -1.85714 -0.285714 0.334677
v -1.71429 -0.285714 0.354839
v -1.85714 -0.142857 0.33871
v -1.42857 -0.285714 0.379032
v -1.71429 -0.857143 0.28629
v -1 -1 0.21371
v -1.14286 -0.142857 0.334677
v -0.142857 -0.428571 0.0806452
v -0.285714 -0.714286 0.0887097
v -0.142857 -0.714286 0.0846774
v -0.142857 -0.857143 0.0846774
v -0.428571 -0.714286 0.0887097
v -0.428571 -1 0.112903
v -0.571429 -1.28571 0.133065
v -0.285714 -1 0.112903
v -0.285714 -1.85714 0.157258
v -0.428571 -1.85714 0.157258
v -0.571429 -1.42857 0.133065
v -0.857143 -1.42857 0.120968
v -0.714286 -1.42857 0.120968
v -1 -1.71429 0.125
v -0.571429 -2.28571 0.0443548
v -0.714286 -2.28571 0.0282258
v -0.142857 -2.14286 0.245968
v -0.285714 -2.57143 0.0927419
v -0.571429 -2.71429 0.0403226
v -1 -3.42857 0.141129
v -0.857143 -2.57143 0.0322581
v -1.57143 -2.71429 0.0887097
v -1.57143 -3 0.0766129
v -2 -3.14286 0.100806
v -1.85714 -3 0.0725806
v -1.71429 -2.85714 0.0766129
v -2.57143 -3.14286 0.310484
v -2 -4.14286 0.100806
v -1.85714 -4.28571 0.104839
v -2.14286 -4.42857 0.120968
v -2 -4.71429 0.125
v -2.28571 -5 0.145161
v -2.14286 -4.85714 0.137097
v -0.857143 -5 0.145161
v -1.14286 -4.57143 0.0766129
v -1.14286 -4.28571 0.0645161
v -1.14286 -4.42857 0.0927419
v -0.142857 -5.57143 0.104839
v -0.714286 -5.57143 0.120968
v -1 -5.85714 0.177419
v -0.285714 -6.42857 0.016129
v -0.285714 -6.57143 0.016129
v -0.428571 -7.28571 0.5
v -0.428571 -7.14286 0.471774
v -0.857143 -7.14286 0.491935
v -1.14286 -7.42857 0.459677
v -1 -7.57143 0.471774
v -1 -7 0.483871
v -1.42857 -6.57143 0.33871
v -1.28571 -6.57143 0.33871
v -1.42857 -7 0.375
v -1.42857 -6.85714 0.375
v -1.28571 -7.42857 0.455645
v -1.71429 -7.42857 0.423387
v -2.14286 -7 0.435484
v -2.28571 -7 0.439516
v -2.14286 -6.57143 0.520161
v -1.42857 -6.42857 0.33871
v -1.28571 -5.85714 0.193548
v -1.85714 -5.57143 0.245968
v -1.57143 -5.14286 0.100806
v -3.28571 -5.85714 0.737903
v -3.71429 -6 0.475806
v -3.71429 -5.42857 0.528226
v -3.85714 -5.57143 0.544355
v -3.71429 -5.57143 0.504032
v -3.28571 -5.14286 0.41129
v -3.85714 -5.14286 0.552419
v -3.85714 -5.28571 0.552419
v -4 -5.57143 0.572581
v -4.85714 -5.57143 0.576613
v -4.14286 -5.71429 0.556452
v -4.71429 -6.42857 0.375
v -4.57143 -6.42857 0.391129
v -4.71429 -6.28571 0.383065
v -5 -6.28571 0.282258
v -4.71429 -6.85714 0.282258
v -5.14286 -7.42857 0.193548
v -4 -7.14286 0.157258
v -3.42857 -7.42857 0.149194
v -3.57143 -6.57143 0.346774
v -3.14286 -6.57143 0.584677
v -3.14286 -6.71429 0.552419
v -3 -7.14286 0.419355
v -2.71429 -7.14286 0.41129
v -3 -7.85714 0.0685484
v -3.14286 -8.28571 0.0887097
v -2.85714 -8.42857 0.0766129
v -2.85714 -8.28571 0.0725806
v -2.85714 -8.57143 0.0766129
v -3.14286 -8.57143 0.0846774
v -3.14286 -8.42857 0.0846774
v -3.28571 -8.42857 0.0887097
v -4.28571 -7.85714 0.697581
v -4.71429 -8.14286 0.673387
v -4.57143 -8.14286 0.693548
v -4.85714 -8.42857 0.669355
v -4.85714 -8.57143 0.669355
v -4.71429 -8.42857 0.685484
v -4.57143 -8.42857 0.693548
v -4.28571 -8.42857 0.701613
v -4.42857 -8.14286 0.685484
v -4.42857 -8.28571 0.677419
v -4.28571 -8.28571 0.681452
v -4.28571 -9.42857 0.274194
v -4.14286 -9.42857 0.274194
v -4.14286 -10 0.407258
v -3.71429 -10 0.334677
v -3.85714 -9.57143 0.258065
v -3.42857 -9.14286 0.133065
v -3.28571 -9.42857 0.104839
v -3 -8.85714 0.0887097
v -2.71429 -8.85714 0.0685484
v -2.71429 -9.42857 0.0685484
v -2.85714 -9.14286 0.0846774
v -2.85714 -9.28571 0.0806452
v -2.71429 -9.71429 0.141129
v -3.14286 -9.57143 0.104839
v -3.28571 -9.57143 0.104839
v -2.28571 -10 0.157258
v -2.14286 -10 0.157258
v -1.85714 -10 0.177419
v -1.85714 -9.85714 0.177419
v -1.42857 -9.14286 0.141129
v -2.42857 -8.71429 0.0766129
v -2.28571 -8.57143 0.0927419
v -1.42857 -7.57143 0.451613
v -1.57143 -7.57143 0.443548
v -1.71429 -7.71429 0.399194
v -0.857143 -8.57143 0.673387
v -1.28571 -7.57143 0.451613
v -0.142857 -7.85714 0.475806
v -0.142857 -8 0.475806
v -0.714286 -8.42857 0.733871
v -0.285714 -8.57143 0.673387
v -0.142857 -8.57143 0.681452
v -1 -8.85714 0.415323
v -1.14286 -8.71429 0.423387
v -1.28571 -9.14286 0.141129
v -0.714286 -9.57143 0.0564516
v -0.285714 -9.85714 0.129032
f 63 235 237
f 202 188 204
f 390 97 31
f 44 11 147
f 207 57 209
f 21 210 209
f 231 228 229
f 341 328 339
f 276 1 68
f 32 399 418
f 419 102 417
f 88 358 92
f 46 168 167
f 480 473 479
f 9 117 118
f 39 132 131
f 144 145 146
f 157 156 170
f 177 3 175
f 176 3 11
f 144 3 177
f 13 47 180
f 181 435 48
f 199 20 201
f 219 214 218
f 53 184 52
f 195 41 194
f 196 197 19
f 226 214 219
f 260 61 224
f 235 23 237
f 248 246 242
f 67 66 270
f 66 276 278
f 275 274 68
f 291 24 300
f 223 259 260
f 59 217 53
f 215 59 60
f 294 222 216
f 103 77 426
f 329 328 81
f 286 282 284
f 349 335 328
f 81 82 26
f 85 346 357
f 27 342 345
f 350 351 353
f 366 370 28
f 371 372 366
f 92 358 371
f 412 99 410
f 441 421 440
f 471 474 472
f 452 108 110
f 484 473 113
f 482 480 481
f 118 117 37
f 126 39 130
f 128 126 130
f 40 134 195
f 188 191 192
f 132 133 131
f 149 43 147
f 18 136 142
f 18 10 16
f 11 146 140
f 155 147 43
f 142 141 10
f 148 139 150
f 169 159 163
f 44 160 174
f 167 166 4
f 175 174 12
f 178 175 12
f 15 47 178
f 50 51 183
f 13 180 14
f 49 181 48
f 431 104 433
f 75 50 181
f 49 75 181
f 304 49 182
f 185 206 56
f 185 205 203
f 143 188 16
f 200 20 55
f 190 189 191
f 6 17 194
f 194 192 189
f 189 196 19
f 196 20 200
f 55 208 197
f 207 55 199
f 186 206 185
f 206 57 56
f 55 207 208
f 213 210 21
f 216 215 60
f 219 221 226
f 225 61 229
f 228 231 232
f 235 63 239
f 231 230 239
f 258 240 239
f 251 267 250
f 254 251 252
f 259 223 222
f 262 261 71
f 261 263 293
f 264 267 251
f 271 267 266
f 268 249 250
f 269 67 270
f 275 68 1
f 69 276 277
f 276 68 277
f 283 284 277
f 71 261 292
f 222 294 73
f 294 60 297
f 295 293 73
f 295 296 293
f 295 294 297
f 182 76 302
f 305 307 78
f 304 302 303
f 305 76 308
f 103 33 421
f 103 30 391
f 426 77 309
f 315 289 7
f 289 315 316
f 80 318 317
f 318 280 281
f 285 327 317
f 329 81 26
f 328 338 339
f 285 316 338
f 83 314 339
f 384 343 340
f 343 385 381
f 313 386 384
f 346 84 27
f 27 347 348
f 350 336 86
f 86 336 349
f 336 334 335
f 357 87 351
f 90 359 88
f 353 354 355
f 87 356 352
f 363 367 28
f 366 92 371
f 366 28 367
f 369 368 28
f 346 345 373
f 369 375 374
f 377 2 93
f 377 376 374
f 397 93 379
f 369 28 370
f 379 395 393
f 94 379 29
f 380 382 29
f 94 382 383
f 383 382 384
f 31 95 389
f 95 388 387
f 394 420 393
f 97 394 31
f 387 94 383
f 31 394 396
f 379 393 397
f 409 98 32
f 404 402 403
f 401 403 491
f 100 405 406
f 415 444 488
f 413 410 414
f 419 30 103
f 433 105 431
f 423 426 427
f 48 430 49
f 34 106 437
f 453 438 34
f 106 438 436
f 436 437 106
f 108 107 438
f 108 452 446
f 449 471 472
f 469 474 471
f 36 470 469
f 35 439 108
f 452 110 109
f 109 463 452
f 109 110 461
f 457 111 456
f 462 459 460
f 111 112 5
f 452 112 469
f 46 464 111
f 464 164 466
f 468 36 465
f 478 468 467
f 478 470 36
f 472 473 484
f 470 474 469
f 476 477 467
f 114 481 500
f 498 483 116
f 114 116 115
f 414 415 413
f 490 497 489
f 495 492 494
f 496 494 489
f 496 498 116
f 38 37 117
f 119 117 9
f 127 119 9
f 38 120 37
f 152 121 122
f 37 120 42
f 120 121 42
f 124 125 118
f 118 126 128
f 42 123 37
f 118 37 124
f 124 37 123
f 125 126 118
f 128 9 118
f 128 127 9
f 129 127 128
f 129 128 130
f 132 134 133
f 131 130 39
f 133 134 40
f 133 40 131
f 132 135 134
f 136 141 142
f 139 137 125
f 138 137 136
f 39 138 132
f 138 39 137
f 39 126 137
f 126 125 137
f 150 125 151
f 135 132 138
f 138 136 135
f 139 148 140
f 140 149 147
f 139 140 141
f 137 141 136
f 137 139 141
f 10 18 142
f 145 10 141
f 10 143 16
f 145 143 10
f 144 143 145
f 3 146 11
f 3 144 146
f 140 146 141
f 145 141 146
f 140 148 149
f 140 147 11
f 149 151 43
f 153 43 151
f 148 151 149
f 151 148 150
f 150 139 125
f 124 151 125
f 123 42 151
f 151 152 153
f 124 123 151
f 42 121 152
f 154 152 122
f 151 42 152
f 154 153 152
f 154 43 153
f 155 43 154
f 44 155 160
f 155 154 161
f 155 44 147
f 160 159 174
f 155 161 160
f 174 156 157
f 174 158 156
f 159 158 174
f 161 45 162
f 159 161 163
f 161 162 163
f 161 159 160
f 165 168 163
f 165 162 45
f 164 165 45
f 4 166 165
f 164 4 165
f 162 165 163
f 168 165 166
f 167 168 166
f 170 172 171
f 169 163 168
f 170 169 168
f 156 158 170
f 159 169 158
f 12 157 170
f 169 170 158
f 173 12 171
f 171 172 173
f 12 170 171
f 170 168 172
f 173 172 46
f 457 173 46
f 173 179 12
f 437 179 173
f 15 178 12
f 179 15 12
f 177 175 178
f 12 174 157
f 3 176 175
f 175 44 174
f 176 44 175
f 11 44 176
f 178 47 177
f 144 177 143
f 177 188 143
f 180 15 179
f 437 180 179
f 181 13 14
f 180 47 15
f 188 177 13
f 14 435 181
f 14 437 436
f 13 181 50
f 49 304 75
f 75 298 50
f 298 51 50
f 50 183 188
f 177 47 13
f 50 188 13
f 183 52 188
f 52 203 188
f 52 183 53
f 52 184 203
f 184 185 203
f 186 185 184
f 205 56 57
f 56 205 185
f 201 20 202
f 204 201 202
f 204 188 203
f 188 187 16
f 16 187 18
f 187 136 18
f 136 187 41
f 187 192 193
f 202 191 188
f 188 192 187
f 201 54 199
f 190 20 196
f 192 194 193
f 189 19 194
f 196 189 190
f 192 191 189
f 187 193 41
f 193 194 41
f 135 136 41
f 195 135 41
f 134 135 195
f 19 197 198
f 194 17 195
f 6 194 19
f 6 19 198
f 197 200 55
f 20 199 55
f 202 20 190
f 190 191 202
f 201 204 54
f 203 54 204
f 205 199 54
f 205 207 199
f 203 205 54
f 207 205 57
f 197 196 200
f 208 207 209
f 212 209 210
f 210 211 212
f 58 212 211
f 213 211 210
f 213 21 214
f 21 209 57
f 57 206 21
f 21 206 186
f 217 218 184
f 186 218 21
f 297 59 53
f 217 184 53
f 218 186 184
f 215 217 59
f 219 216 221
f 221 216 22
f 215 219 217
f 21 218 214
f 217 219 218
f 221 220 226
f 22 220 221
f 215 216 219
f 216 222 22
f 223 224 22
f 222 223 22
f 224 223 260
f 224 225 220
f 22 224 220
f 225 226 220
f 224 61 225
f 225 58 226
f 58 225 227
f 226 213 214
f 213 226 211
f 211 226 58
f 227 225 228
f 227 228 232
f 229 228 225
f 230 229 61
f 230 231 229
f 63 233 62
f 236 23 245
f 62 233 234
f 237 23 236
f 63 62 232
f 250 249 247
f 234 233 237
f 234 237 236
f 233 63 237
f 23 235 238
f 238 235 239
f 239 63 231
f 63 232 231
f 243 244 240
f 240 258 241
f 240 241 253
f 241 258 257
f 252 242 253
f 240 253 243
f 249 246 248
f 253 241 255
f 240 244 239
f 239 244 238
f 244 245 238
f 245 244 243
f 238 245 23
f 246 243 242
f 245 243 246
f 248 242 247
f 242 252 247
f 247 249 248
f 250 247 251
f 255 252 253
f 251 247 252
f 254 252 255
f 243 253 242
f 64 254 255
f 64 264 254
f 257 259 256
f 64 257 256
f 257 255 241
f 64 255 257
f 258 239 230
f 258 259 257
f 260 259 230
f 260 230 61
f 259 258 230
f 293 263 73
f 222 73 263
f 261 293 72
f 261 262 263
f 263 262 272
f 272 262 288
f 65 265 263
f 263 256 259
f 263 265 256
f 264 64 256
f 265 266 264
f 256 265 264
f 265 65 266
f 266 267 264
f 251 254 264
f 246 236 245
f 249 236 246
f 270 268 267
f 276 69 278
f 267 268 250
f 236 249 268
f 66 67 1
f 66 268 270
f 1 67 275
f 275 67 269
f 275 269 271
f 270 271 269
f 270 267 271
f 266 65 271
f 275 271 272
f 272 271 65
f 274 275 273
f 274 70 283
f 273 287 70
f 277 274 283
f 70 274 273
f 273 275 272
f 276 66 1
f 277 68 274
f 278 268 66
f 236 268 278
f 278 69 279
f 279 281 278
f 278 281 280
f 317 281 282
f 69 282 279
f 282 277 284
f 282 69 277
f 70 287 283
f 284 283 289
f 285 286 284
f 273 288 287
f 272 288 273
f 263 272 65
f 262 71 288
f 71 289 288
f 288 289 287
f 7 289 71
f 71 292 290
f 306 7 290
f 301 24 74
f 290 74 291
f 292 74 290
f 74 24 291
f 296 298 74
f 74 292 296
f 261 72 292
f 296 292 72
f 294 295 73
f 222 263 259
f 216 60 294
f 293 296 72
f 59 297 60
f 53 183 297
f 297 183 51
f 297 51 298
f 299 301 74
f 298 299 74
f 296 295 297
f 296 297 298
f 298 75 299
f 300 24 301
f 300 299 303
f 300 301 299
f 300 303 302
f 299 75 303
f 303 75 304
f 76 305 306
f 302 304 182
f 302 76 306
f 306 305 78
f 79 78 307
f 79 306 78
f 310 307 309
f 308 309 307
f 76 182 430
f 307 305 308
f 426 309 427
f 308 427 309
f 309 77 96
f 77 391 96
f 103 391 77
f 312 314 310
f 83 79 310
f 312 310 311
f 314 312 313
f 312 386 313
f 83 310 314
f 83 315 79
f 307 310 79
f 7 306 79
f 306 290 300
f 290 291 300
f 300 302 306
f 71 290 7
f 315 7 79
f 316 315 83
f 285 289 316
f 283 287 289
f 284 289 285
f 285 317 286
f 286 317 282
f 282 281 279
f 318 319 280
f 317 318 281
f 80 319 318
f 317 327 80
f 322 80 321
f 326 329 320
f 327 326 80
f 321 320 322
f 323 325 319
f 80 323 319
f 80 322 323
f 323 324 325
f 322 320 323
f 321 326 320
f 82 325 324
f 320 324 323
f 329 82 324
f 26 82 329
f 329 324 320
f 321 80 326
f 338 327 285
f 329 326 338
f 338 328 329
f 81 328 25
f 331 81 25
f 82 331 325
f 325 331 330
f 331 332 330
f 82 81 331
f 25 332 331
f 332 333 330
f 333 332 337
f 334 337 335
f 333 337 334
f 332 25 337
f 337 25 328
f 338 326 327
f 83 338 316
f 341 342 348
f 338 83 339
f 340 343 341
f 342 341 343
f 384 340 313
f 344 343 381
f 342 344 345
f 27 348 342
f 343 344 342
f 27 345 346
f 84 346 85
f 84 347 27
f 84 341 347
f 347 341 348
f 341 339 340
f 84 328 341
f 349 84 85
f 84 349 328
f 335 337 328
f 86 349 351
f 334 336 350
f 350 355 334
f 351 350 86
f 349 336 335
f 353 351 352
f 352 351 87
f 354 353 352
f 355 350 353
f 356 355 354
f 355 356 359
f 356 354 352
f 351 85 357
f 349 85 351
f 358 357 373
f 371 358 373
f 88 87 358
f 358 87 357
f 356 87 88
f 91 90 88
f 359 356 88
f 361 89 360
f 90 361 360
f 90 364 361
f 365 91 92
f 367 361 364
f 89 361 362
f 362 361 363
f 363 361 367
f 90 91 364
f 364 365 367
f 364 91 365
f 367 365 92
f 91 88 92
f 367 92 366
f 363 28 376
f 373 369 372
f 372 370 366
f 369 370 372
f 373 372 371
f 373 357 346
f 375 373 344
f 344 380 375
f 373 345 344
f 380 344 381
f 375 380 2
f 375 2 374
f 376 369 374
f 373 375 369
f 369 376 368
f 368 376 28
f 374 2 377
f 397 377 93
f 397 376 377
f 29 378 380
f 93 2 378
f 379 93 29
f 382 94 29
f 378 2 380
f 381 382 380
f 385 384 382
f 385 382 381
f 343 384 385
f 384 386 383
f 340 314 313
f 339 314 340
f 312 311 386
f 311 310 309
f 383 386 311
f 387 383 311
f 96 311 309
f 95 31 388
f 389 95 387
f 311 96 387
f 387 96 389
f 96 392 389
f 392 390 389
f 392 96 391
f 8 420 30
f 97 390 30
f 392 30 390
f 31 389 390
f 97 30 420
f 394 97 420
f 396 388 31
f 396 395 388
f 387 388 94
f 388 395 94
f 395 379 94
f 396 394 393
f 393 395 396
f 29 93 378
f 393 398 397
f 393 8 398
f 393 420 8
f 399 8 418
f 8 399 398
f 98 399 32
f 398 399 98
f 98 400 397
f 397 400 401
f 403 401 98
f 98 397 398
f 98 401 400
f 409 407 98
f 98 407 403
f 397 401 491
f 403 402 491
f 404 403 407
f 407 99 404
f 404 100 402
f 404 405 100
f 413 486 412
f 488 486 487
f 404 99 405
f 409 411 407
f 409 101 411
f 407 410 99
f 417 409 32
f 101 409 408
f 408 409 417
f 416 408 102
f 101 408 416
f 411 414 410
f 411 101 414
f 410 407 411
f 413 412 410
f 412 405 99
f 488 444 445
f 488 487 413
f 445 444 443
f 415 414 416
f 444 415 416
f 416 441 444
f 444 441 442
f 102 441 416
f 103 421 102
f 419 103 102
f 421 441 102
f 101 416 414
f 408 417 102
f 417 418 419
f 32 418 417
f 8 30 419
f 419 418 8
f 30 392 391
f 103 426 33
f 33 425 421
f 105 422 431
f 421 425 422
f 425 424 422
f 425 423 424
f 422 424 431
f 428 423 427
f 423 425 33
f 33 426 423
f 424 423 428
f 308 429 428
f 424 428 429
f 427 308 428
f 308 431 429
f 308 430 104
f 104 431 308
f 308 76 430
f 49 430 182
f 435 434 104
f 430 435 104
f 430 48 435
f 104 434 433
f 424 429 431
f 438 107 105
f 436 438 105
f 436 105 433
f 434 432 433
f 435 436 432
f 434 435 432
f 14 436 435
f 432 436 433
f 437 14 180
f 34 438 106
f 453 108 438
f 108 446 35
f 107 108 439
f 440 107 442
f 107 440 105
f 105 440 422
f 442 441 440
f 444 442 443
f 421 422 440
f 443 439 445
f 439 443 442
f 107 439 442
f 108 453 110
f 449 450 471
f 471 450 469
f 35 445 439
f 448 446 447
f 447 451 449
f 451 450 449
f 451 446 452
f 451 452 450
f 452 460 5
f 452 5 112
f 463 460 452
f 35 446 448
f 451 447 446
f 469 450 452
f 454 34 437
f 461 110 453
f 34 454 453
f 453 454 455
f 453 455 461
f 454 437 173
f 459 455 454
f 454 173 456
f 111 457 46
f 454 458 459
f 461 462 463
f 111 458 456
f 454 456 458
f 173 457 456
f 459 458 111
f 459 111 5
f 460 459 5
f 463 109 461
f 455 459 462
f 461 455 462
f 460 463 462
f 112 111 464
f 112 464 465
f 465 466 468
f 167 464 46
f 46 172 168
f 164 45 466
f 466 465 464
f 464 167 4
f 464 4 164
f 466 467 468
f 36 468 478
f 112 465 36
f 469 112 36
f 478 467 477
f 473 475 477
f 475 470 477
f 475 474 470
f 473 477 476
f 477 470 478
f 479 476 467
f 481 114 482
f 113 482 114
f 473 476 479
f 114 115 113
f 483 484 113
f 485 484 483
f 483 113 115
f 115 116 483
f 113 473 482
f 473 480 482
f 474 473 472
f 474 475 473
f 447 449 484
f 449 472 484
f 447 484 485
f 447 485 448
f 485 488 448
f 448 445 35
f 488 445 448
f 413 487 486
f 415 488 413
f 489 497 496
f 490 488 497
f 485 483 497
f 497 488 485
f 405 490 406
f 405 412 490
f 486 490 412
f 488 490 486
f 406 490 493
f 494 492 493
f 491 402 100
f 493 492 100
f 491 100 492
f 493 490 489
f 489 494 493
f 100 406 493
f 494 499 495
f 494 496 499
f 500 495 499
f 499 496 116
f 497 498 496
f 498 497 483
f 114 499 116
f 499 114 500
