v -5 -2.68293 0.633735
v -4.6 -8.78049 0.617462
v -4.6 -1.70732 0.64471
v -6.4 -5.36585 0.707782
v -5.4 -6.58537 0.871272
v -3.6 -7.31707 0.691945
v -6.6 -6.82927 0.67063
v -4.6 -5.85366 0.74533
v -8 -5.36585 0.630948
v -6.8 -4.39024 0.72263
v -6 -4.39024 0.701698
v -4 -4.39024 0.663188
v -3 -2.43902 0.652497
v -3.8 -3.41463 0.658171
v -4 -3.17073 0.662672
v -3.2 -1.95122 0.645122
v -2 -3.41463 0.672289
v -1.6 -4.39024 0.675672
v -1.4 -4.63415 0.697738
v -0.6 -5.85366 0.616552
v -2 -6.58537 0.616566
v -2.2 -6.58537 0.616552
v -4.6 -5.60976 0.697738
v -6.6 -8.78049 0.803411
v -5.6 -8.78049 0.616552
v -6.8 -8.53659 0.798067
v -7.4 -8.53659 0.67063
v -7.6 -7.56098 0.655287
v -6.8 -6.82927 0.647208
v -7 -7.31707 0.655287
v -6.6 -7.31707 0.665788
v -5.4 -7.31707 0.833696
v -6.2 -6.58537 0.673969
v -5.8 -6.58537 0.747691
v -6.2 -5.85366 0.690054
v -6.4 -6.58537 0.679141
v -8.2 -7.80488 0.616552
v -9.8 -5.85366 0.616552
v -9.8 -5.36585 0.616552
v -9.8 -4.87805 0.61678
v -8.8 -4.87805 0.738344
v -8.2 -4.39024 0.648494
v -9.4 -4.14634 0.617542
v -9 -3.65854 0.616552
v -8.8 -3.41463 0.616552
v -6.2 -3.17073 0.680907
v -6.6 -3.90244 0.764657
v -6.6 -3.41463 0.806102
v -7.4 -3.65854 0.630072
v -7.4 -3.90244 0.630948
v -6.2 -4.39024 0.701698
v -6.4 -5.12195 0.695787
v -6.2 -5.12195 0.701698
v -6 -4.63415 0.701698
v -6 -4.14634 0.738344
v -5.8 -3.90244 0.752461
v -5.6 -4.87805 0.682695
v -5.6 -5.12195 0.697738
v -4.4 -4.63415 0.636758
v -4.2 -5.12195 0.648494
v -3.4 -5.12195 0.757293
v -2.8 -4.87805 0.630072
v -2.8 -4.63415 0.637818
v -3.4 -4.87805 0.709848
v -3.2 -3.90244 0.693856
v -2.8 -4.14634 0.65388
v -4.6 -4.14634 0.628399
v -4.8 -4.39024 0.659648
v -5.2 -3.90244 0.729262
v -4.2 -1.95122 0.649804
v -4 -2.19512 0.655287
v -5 -1.95122 0.621143
v -5.2 -1.70732 0.616552
v -3 -2.92683 0.659648
v -3 -3.17073 0.673969
v -2.2 -3.41463 0.64471
v -1.8 -4.63415 0.625378
v -2.6 -4.63415 0.622793
v -0.2 -5.60976 0.61678
v -1.4 -5.36585 0.65388
v -2.6 -7.31707 0.616552
v -2.2 -7.07317 0.61678
v -2.8 -6.09756 0.626093
v -2.6 -6.09756 0.64115
v -2.6 -6.34146 0.642312
v -3.6 -5.60976 0.977087
v -4.4 -6.09756 0.842204
v -4.8 -6.58537 0.740656
v -4.6 -6.58537 0.754869
v -4.2 -6.34146 0.960934
v -4.4 -6.82927 0.754869
v -3.4 -7.07317 0.677395
v -3.2 -6.58537 0.731507
v -5 -8.53659 0.620649
v -4.8 -8.78049 0.616562
v -8.4 -8.04878 0.622793
v -8.2 -8.04878 0.616552
v -8.4 -7.80488 0.628399
v -8 -7.80488 0.61668
v -8 -8.04878 0.616908
v -7.6 -8.29268 0.709848
v -7.8 -8.04878 0.616552
v -7.8 -7.80488 0.64115
v -7.6 -8.04878 0.616566
v -7.6 -8.78049 0.618271
v -7.8 -8.78049 0.616552
v -6.8 -9.02439 0.792775
v -6.4 -9.5122 0.628399
v -6.2 -9.02439 0.638903
v -6 -8.53659 0.626093
v -6.2 -8.29268 0.673969
v -5.8 -8.04878 0.803411
v -5.2 -8.78049 0.616552
v -5.2 -7.80488 0.727034
v -5.4 -7.80488 0.839357
v -5.8 -7.56098 0.750068
v -5.8 -7.80488 0.750068
v -6 -8.04878 0.752461
v -6.2 -7.80488 0.782353
v -6 -7.56098 0.711933
v -6.6 -7.80488 0.806102
v -6.6 -8.29268 0.819748
v -6.2 -8.53659 0.626835
v -6.8 -8.78049 0.792775
v -6.6 -8.53659 0.816994
v -6.8 -8.29268 0.803411
v -7.2 -8.53659 0.688183
v -7.2 -8.29268 0.695787
v -7.2 -7.80488 0.658171
v -7 -8.04878 0.718297
v -7.2 -7.56098 0.662672
v -7.4 -7.56098 0.655287
v -7 -7.07317 0.64471
v -7.2 -7.31707 0.65388
v -7 -6.58537 0.617883
v -6.2 -6.82927 0.673969
v -6.6 -7.07317 0.655287
v -6.8 -7.07317 0.652497
v -6.8 -7.31707 0.665788
v -6.4 -7.31707 0.668994
v -6.2 -7.56098 0.727034
v -6 -7.31707 0.707782
v -5.6 -7.07317 0.779782
v -5.8 -7.31707 0.716158
v -5.6 -7.56098 0.787537
v -5.6 -6.82927 0.774683
v -5.2 -6.58537 0.830883
v -5.2 -6.82927 0.830883
v -5.2 -6.34146 0.886191
v -5.4 -6.34146 0.845062
v -5.8 -6.82927 0.747691
v -6.2 -6.09756 0.672289
v -6.4 -6.09756 0.656717
v -6.2 -5.60976 0.707782
v -5.2 -6.09756 0.777225
v -5.4 -5.60976 0.724823
v -5.2 -5.60976 0.727034
v -5 -5.60976 0.707782
v -5.2 -5.12195 0.682695
v -5.4 -5.36585 0.711933
v -5.8 -5.12195 0.693856
v -6 -5.36585 0.699708
v -6 -5.12195 0.690054
v -6.6 -5.36585 0.675672
v -6.6 -5.85366 0.65388
v -8.2 -5.36585 0.659648
v -8 -5.12195 0.649804
v -8.6 -5.12195 0.742985
v -8.8 -5.60976 0.664219
v -8.4 -6.09756 0.61668
v -8 -6.82927 0.616552
v -7.8 -7.56098 0.655287
v -8.2 -7.56098 0.616552
v -8.2 -7.07317 0.616552
v -8.2 -7.31707 0.616552
v -8.4 -7.31707 0.616552
v -8.6 -7.31707 0.616552
v -8.4 -6.34146 0.616552
v -9.4 -6.09756 0.616552
v -9.6 -5.85366 0.616552
v -9.6 -6.09756 0.616552
v -9.6 -5.60976 0.616609
v -9.4 -5.85366 0.616552
v -9 -5.60976 0.664219
v -9 -5.36585 0.67063
v -9.4 -5.60976 0.616609
v -8.8 -5.12195 0.742985
v -9 -4.87805 0.738344
v -9.8 -5.12195 0.616552
v -9.6 -5.12195 0.616908
v -10 -5.36585 0.616552
v -10 -5.12195 0.616552
v -9.6 -4.14634 0.617542
v -9.2 -3.90244 0.616552
v -9 -3.90244 0.616552
v -9.4 -4.63415 0.67063
v -8.6 -4.39024 0.688183
v -8.4 -4.63415 0.688183
v -8.4 -4.87805 0.688183
v -8.6 -3.65854 0.616552
v -8.8 -3.65854 0.616552
v -9 -3.41463 0.616552
v -5.6 -2.43902 0.634717
v -5.4 -2.19512 0.616552
v -5.6 -2.19512 0.64471
v -5.2 -2.19512 0.616552
v -5.6 -3.17073 0.720455
v -5.2 -3.17073 0.733769
v -5.4 -3.17073 0.72263
v -5.4 -3.65854 0.718297
v -5.4 -3.41463 0.718297
v -5.6 -3.41463 0.724823
v -6 -3.41463 0.767141
v -6 -3.65854 0.767141
v -6.2 -3.65854 0.679141
v -5.8 -2.68293 0.668994
v -5.8 -2.43902 0.667379
v -7.2 -3.17073 0.616552
v -6.8 -3.65854 0.762187
v -6.4 -3.41463 0.750068
v -6.4 -4.39024 0.703707
v -6.6 -4.39024 0.714036
v -6.4 -3.65854 0.750068
v -7.2 -3.65854 0.631851
v -7 -4.39024 0.711933
v -7.4 -4.39024 0.616552
v -6.8 -4.87805 0.658171
v -6.6 -4.63415 0.714036
v -6.4 -4.63415 0.703707
v -6.2 -4.87805 0.691945
v -6.2 -4.63415 0.701698
v -6.2 -3.90244 0.682695
v -5.8 -4.14634 0.714036
v -5.8 -4.39024 0.733769
v -5.6 -4.39024 0.711933
v -5.4 -4.14634 0.709848
v -5.6 -3.90244 0.736048
v -5.4 -3.90244 0.711933
v -5 -4.63415 0.661149
v -5.2 -4.39024 0.679141
v -5.4 -4.63415 0.682695
v -5.4 -4.87805 0.686333
v -5.2 -4.63415 0.679141
v -5.2 -4.87805 0.668994
v -4.8 -5.12195 0.633735
v -4.6 -4.63415 0.636758
v -4.8 -4.63415 0.659648
v -5 -4.39024 0.661149
v -5 -4.14634 0.673969
v -4.6 -3.90244 0.616552
v -4.6 -4.39024 0.636758
v -4 -3.90244 0.659648
v -4 -4.63415 0.663188
v -4.4 -4.39024 0.636758
v -4.6 -4.87805 0.64471
v -4.4 -4.87805 0.64471
v -4.2 -4.87805 0.647208
v -3.4 -4.63415 0.709848
v -3.6 -4.87805 0.709848
v -3.2 -5.12195 0.764657
v -3.2 -4.63415 0.784938
v -3.2 -4.14634 0.677395
v -2.8 -3.90244 0.672289
v -3 -4.14634 0.668994
v -3.4 -3.90244 0.701698
v -3.4 -4.39024 0.709848
v -3.6 -3.65854 0.675672
v -3.8 -3.65854 0.658171
v -3.6 -3.41463 0.675672
v -3.4 -3.41463 0.675672
v -3.4 -3.65854 0.675672
v -2.8 -3.41463 0.701698
v -3.2 -3.17073 0.714036
v -3 -2.68293 0.652497
v -3.2 -2.92683 0.662672
v -3.4 -3.17073 0.701698
v -3.8 -2.92683 0.718297
v -4.4 -2.92683 0.662672
v -4.2 -3.17073 0.647637
v -4 -3.41463 0.665788
v -4.4 -3.65854 0.629222
v -4.2 -3.65854 0.636758
v -4.4 -3.41463 0.629222
v -4.6 -3.41463 0.629222
v -4.6 -3.65854 0.629222
v -4.8 -3.17073 0.64115
v -4.8 -2.92683 0.651139
v -4.6 -3.17073 0.633735
v -4.6 -2.68293 0.67063
v -5 -2.92683 0.636758
v -4.6 -2.19512 0.65388
v -4.4 -2.68293 0.67063
v -4.4 -2.43902 0.662672
v -4 -2.43902 0.67063
v -4.4 -1.95122 0.649804
v -4 -1.95122 0.65388
v -4.2 -1.46341 0.642707
v -4.4 -1.70732 0.64471
v -4.6 -1.46341 0.64115
v -4.6 -1.95122 0.649804
v -4.4 -2.19512 0.65388
v -4 -1.21951 0.63818
v -4.4 -1.46341 0.64115
v -3.8 -1.46341 0.640014
v -3.6 -1.21951 0.652497
v -3.4 -1.46341 0.657202
v -3.8 -1.21951 0.648931
v -3.6 -1.46341 0.657202
v -3.8 -1.95122 0.649804
v -3.6 -1.70732 0.637818
v -3 -2.19512 0.650249
v -3.6 -2.19512 0.642312
v -3.8 -2.19512 0.645947
v -3.6 -2.43902 0.651139
v -3.4 -2.43902 0.651139
v -3.2 -2.43902 0.649804
v -3.2 -2.19512 0.649804
v -2.6 -2.19512 0.616552
v -2.8 -2.43902 0.645947
v -2.6 -2.68293 0.649804
v -2 -3.17073 0.637818
v -2.4 -3.17073 0.656717
v -2.4 -3.41463 0.65388
v -2.4 -3.65854 0.65388
v -2.2 -3.65854 0.64471
v -1.8 -3.65854 0.671183
v -1.4 -3.65854 0.616552
v -1.6 -4.14634 0.664219
v -2 -4.39024 0.636758
v -1.8 -3.90244 0.684504
v -2 -3.90244 0.656717
v -2.2 -3.90244 0.652959
v -2.4 -3.90244 0.652497
v -2.2 -4.39024 0.63607
v -2.2 -4.63415 0.63607
v -1.8 -4.87805 0.638903
v -2 -4.63415 0.636758
v -1.6 -5.12195 0.621143
v -1 -4.87805 0.616552
v -1.4 -3.90244 0.618951
v -1 -5.36585 0.626835
v -1 -5.60976 0.616609
v -0.8 -5.36585 0.62403
v -1.2 -5.85366 0.616908
v -0.2 -5.85366 0.616552
v -2.4 -7.31707 0.616552
v -2.4 -7.07317 0.616552
v -2.2 -6.82927 0.616552
v -2 -6.82927 0.616566
v -2.4 -6.82927 0.616552
v -2.4 -6.58537 0.616552
v -1.6 -6.09756 0.626835
v -1.6 -5.85366 0.636758
v -1.6 -5.60976 0.629222
v -1.6 -5.36585 0.625378
v -1.8 -5.12195 0.640014
v -2 -5.36585 0.677395
v -2.6 -5.12195 0.651139
v -2.8 -5.12195 0.621143
v -2.8 -5.36585 0.630072
v -2.6 -5.36585 0.65388
v -2.6 -5.60976 0.649804
v -2.4 -5.36585 0.667379
v -2.8 -5.60976 0.617249
v -2.6 -5.85366 0.640772
v -2.8 -5.85366 0.616908
v -3.4 -6.09756 0.847932
v -3.6 -6.09756 0.847932
v -3.4 -5.85366 0.892226
v -3.6 -5.85366 0.892226
v -3.6 -5.36585 0.853704
v -4.8 -5.60976 0.693856
v -4.6 -5.36585 0.64471
v -4.4 -5.36585 0.64471
v -4.8 -5.85366 0.733769
v -5 -5.85366 0.738344
v -4 -6.34146 0.889204
v -4.4 -5.85366 0.74533
v -3.8 -6.09756 0.865375
v -4.4 -6.58537 0.754869
v -5 -6.58537 0.762187
v -4.8 -6.82927 0.740656
v -4.6 -6.82927 0.754869
v -4.8 -7.07317 0.740656
v -4.8 -7.56098 0.718297
v -4.2 -7.56098 0.691945
v -4 -7.07317 0.727034
v -4 -7.31707 0.697738
v -3.8 -7.31707 0.686333
v -3.6 -7.07317 0.677395
v -3.8 -6.82927 0.684504
v -3.6 -6.34146 0.845062
v -3.4 -6.82927 0.656717
v -2.8 -6.34146 0.637818
v -2.6 -7.07317 0.616552
v -3.2 -7.07317 0.647208
v -2.8 -7.31707 0.616552
v -3 -7.56098 0.616908
v -3.2 -8.04878 0.616552
v -3.8 -7.56098 0.686333
v -4.4 -7.56098 0.691945
v -4.6 -7.56098 0.691945
v -4.6 -7.80488 0.677395
v -5 -7.80488 0.688183
v -5 -8.04878 0.699708
v -4.8 -8.04878 0.695787
v -4.4 -8.04878 0.655287
v -5 -8.78049 0.616552
f 52 164 4
f 236 249 69
f 277 276 275
f 91 384 401
f 372 8 23
f 300 291 301
f 1 206 203
f 303 298 297
f 307 304 308
f 221 231 51
f 221 232 47
f 403 385 404
f 124 24 26
f 112 110 25
f 138 31 137
f 131 132 129
f 139 131 121
f 32 144 145
f 380 89 91
f 33 153 36
f 149 150 147
f 190 186 185
f 167 166 9
f 297 298 70
f 226 167 227
f 258 253 259
f 259 61 64
f 76 323 325
f 281 285 250
f 297 302 303
f 17 76 325
f 329 77 18
f 329 18 328
f 345 20 349
f 342 341 80
f 264 262 261
f 391 91 387
f 261 258 64
f 247 245 255
f 86 371 60
f 395 93 396
f 345 346 399
f 96 177 181
f 126 128 26
f 107 109 24
f 121 130 126
f 122 125 123
f 127 27 105
f 127 26 128
f 134 171 28
f 28 132 134
f 28 103 104
f 130 121 129
f 134 131 30
f 138 29 133
f 111 121 122
f 402 384 385
f 151 136 142
f 146 151 143
f 7 136 36
f 144 143 151
f 88 155 149
f 136 140 142
f 179 169 184
f 176 177 98
f 133 135 171
f 38 39 191
f 173 175 176
f 177 178 179
f 103 172 99
f 173 98 37
f 38 182 39
f 189 40 192
f 190 40 189
f 187 168 41
f 42 198 167
f 199 166 167
f 195 44 194
f 196 43 193
f 194 44 202
f 197 196 188
f 195 197 200
f 201 45 202
f 195 200 201
f 200 218 45
f 192 40 193
f 201 44 195
f 202 44 201
f 291 1 289
f 212 213 214
f 56 237 212
f 219 225 47
f 214 215 232
f 48 223 220
f 50 225 224
f 219 47 223
f 10 222 47
f 55 51 11
f 228 222 10
f 10 47 225
f 4 162 53
f 229 231 221
f 229 221 222
f 51 54 11
f 159 58 160
f 56 212 214
f 234 11 54
f 251 67 68
f 54 161 57
f 161 162 160
f 230 54 231
f 158 159 157
f 257 256 60
f 255 373 374
f 371 61 259
f 366 364 369
f 78 63 62
f 62 358 78
f 266 12 258
f 253 257 259
f 61 260 64
f 264 65 262
f 265 252 266
f 263 65 264
f 252 250 67
f 249 67 250
f 282 281 250
f 251 246 59
f 69 238 236
f 244 241 242
f 210 237 238
f 290 209 208
f 297 304 302
f 290 286 287
f 309 296 313
f 301 291 293
f 206 204 203
f 205 204 73
f 277 269 276
f 317 16 312
f 16 310 312
f 275 276 273
f 271 272 270
f 74 322 320
f 16 311 318
f 73 299 302
f 327 339 79
f 339 340 19
f 337 336 77
f 363 358 361
f 338 339 19
f 20 79 343
f 348 349 22
f 350 394 395
f 350 347 82
f 6 92 390
f 395 346 347
f 357 354 355
f 365 362 364
f 365 84 352
f 357 335 363
f 83 85 84
f 379 87 377
f 23 8 378
f 143 148 146
f 87 90 377
f 375 88 87
f 396 397 395
f 88 382 383
f 382 88 381
f 384 91 383
f 91 388 387
f 388 389 387
f 390 92 393
f 398 396 6
f 396 393 92
f 394 93 395
f 396 93 393
f 398 6 399
f 81 397 398
f 25 109 108
f 108 95 408
f 408 113 108
f 345 82 346
f 96 98 177
f 106 97 96
f 37 98 97
f 97 98 96
f 99 172 173
f 97 100 37
f 99 37 100
f 100 102 99
f 102 103 99
f 172 103 28
f 103 102 104
f 102 101 104
f 27 128 101
f 27 127 128
f 101 105 27
f 101 102 100
f 106 100 97
f 106 101 100
f 101 106 105
f 38 96 181
f 106 108 105
f 107 24 124
f 108 107 105
f 25 110 109
f 107 108 109
f 123 110 111
f 112 118 110
f 110 123 109
f 405 406 404
f 404 406 403
f 115 405 114
f 115 114 32
f 115 117 112
f 121 141 140
f 145 115 32
f 145 116 117
f 141 142 140
f 121 111 119
f 111 110 118
f 112 117 118
f 117 116 120
f 117 119 118
f 119 120 141
f 117 120 119
f 116 142 120
f 31 139 121
f 111 118 119
f 125 24 123
f 122 123 111
f 24 109 123
f 127 124 26
f 127 107 124
f 122 126 125
f 26 24 125
f 125 126 26
f 122 121 126
f 107 127 105
f 130 129 128
f 128 104 101
f 104 128 129
f 126 130 128
f 121 131 129
f 104 132 28
f 104 129 132
f 30 133 134
f 139 31 138
f 131 134 132
f 171 174 172
f 172 28 171
f 133 171 134
f 172 174 175
f 9 135 165
f 133 29 135
f 29 36 135
f 29 7 36
f 152 153 33
f 135 36 153
f 36 136 33
f 7 137 136
f 140 137 31
f 7 29 137
f 29 138 137
f 133 30 139
f 133 139 138
f 30 131 139
f 136 137 140
f 140 31 121
f 142 141 120
f 121 119 141
f 144 142 116
f 32 148 143
f 145 144 116
f 151 142 144
f 115 145 117
f 32 385 384
f 143 144 32
f 34 146 5
f 5 146 148
f 384 148 32
f 147 5 148
f 5 150 34
f 5 147 150
f 156 150 155
f 162 156 160
f 34 151 146
f 34 33 151
f 136 151 33
f 33 34 152
f 154 165 35
f 152 35 153
f 165 164 9
f 9 227 167
f 165 154 4
f 35 152 150
f 157 156 155
f 152 34 150
f 150 149 155
f 162 35 156
f 150 156 35
f 157 155 376
f 158 245 159
f 156 157 160
f 157 159 160
f 57 161 58
f 163 53 162
f 161 160 58
f 162 154 35
f 161 163 162
f 53 52 4
f 154 162 4
f 4 164 165
f 170 178 171
f 227 9 164
f 135 170 171
f 35 165 153
f 9 170 135
f 153 165 135
f 166 170 9
f 199 198 41
f 199 41 168
f 169 166 168
f 169 168 187
f 169 170 166
f 184 186 183
f 183 179 184
f 179 170 169
f 178 177 174
f 99 173 37
f 173 172 175
f 178 174 171
f 174 176 175
f 173 176 98
f 177 179 181
f 176 174 177
f 179 178 170
f 180 181 179
f 180 38 181
f 39 189 192
f 180 182 38
f 182 186 190
f 180 183 182
f 180 179 183
f 184 169 185
f 185 186 184
f 183 186 182
f 188 187 41
f 185 169 187
f 188 185 187
f 39 182 190
f 189 39 190
f 39 192 191
f 193 40 196
f 196 40 190
f 195 194 43
f 43 196 197
f 197 41 198
f 188 196 190
f 185 188 190
f 166 199 168
f 188 41 197
f 167 198 199
f 167 226 42
f 42 200 197
f 197 198 42
f 195 43 197
f 200 45 201
f 49 218 200
f 200 42 50
f 194 193 43
f 202 193 194
f 46 218 48
f 218 205 73
f 205 218 217
f 203 204 205
f 217 203 205
f 73 206 72
f 73 204 206
f 209 203 216
f 1 203 209
f 217 216 203
f 210 211 212
f 208 209 211
f 69 211 210
f 207 211 209
f 207 213 212
f 210 212 237
f 211 207 212
f 207 209 216
f 223 215 220
f 214 213 215
f 46 216 217
f 213 207 46
f 218 46 217
f 46 207 216
f 219 218 224
f 218 49 224
f 50 49 200
f 48 219 223
f 224 225 219
f 219 48 218
f 46 220 213
f 46 48 220
f 213 220 215
f 232 215 223
f 47 222 221
f 47 232 223
f 226 225 50
f 50 224 49
f 226 50 42
f 227 225 226
f 52 229 228
f 228 10 227
f 10 225 227
f 231 54 51
f 229 222 228
f 227 52 228
f 52 230 229
f 52 227 164
f 53 230 52
f 53 163 230
f 235 234 57
f 161 54 163
f 163 54 230
f 230 231 229
f 56 232 55
f 221 51 232
f 51 55 232
f 233 56 55
f 56 214 232
f 11 234 55
f 57 234 54
f 233 55 234
f 234 235 233
f 248 239 247
f 243 240 241
f 235 236 233
f 235 240 236
f 233 237 56
f 233 236 237
f 210 238 69
f 237 236 238
f 244 239 243
f 248 249 240
f 236 240 249
f 240 235 241
f 235 57 241
f 242 241 57
f 58 242 57
f 58 159 242
f 244 243 241
f 239 240 243
f 159 244 242
f 159 245 244
f 256 374 60
f 372 23 373
f 256 246 255
f 245 372 373
f 248 247 68
f 68 247 246
f 239 245 247
f 239 244 245
f 67 249 68
f 240 239 248
f 248 68 249
f 249 250 69
f 68 246 251
f 67 251 254
f 280 15 279
f 67 254 252
f 12 252 254
f 254 253 12
f 254 59 253
f 59 256 257
f 251 59 254
f 247 255 246
f 245 373 255
f 246 256 59
f 255 374 256
f 253 59 257
f 60 374 86
f 12 253 258
f 259 64 258
f 257 60 259
f 260 369 364
f 63 261 62
f 62 261 260
f 260 261 64
f 266 252 12
f 63 66 264
f 333 324 263
f 272 65 263
f 63 264 261
f 66 263 264
f 65 265 262
f 262 266 261
f 262 265 266
f 261 266 258
f 267 268 265
f 271 269 267
f 14 268 267
f 265 268 252
f 14 15 280
f 267 269 14
f 271 265 65
f 270 273 276
f 75 273 270
f 269 271 270
f 267 265 271
f 272 271 65
f 324 325 323
f 272 324 323
f 75 270 272
f 75 74 275
f 75 322 74
f 324 272 263
f 319 13 274
f 316 274 13
f 275 74 274
f 275 315 277
f 317 311 16
f 316 317 315
f 75 275 273
f 269 270 276
f 315 312 314
f 294 293 292
f 14 277 15
f 15 277 278
f 208 211 69
f 292 277 294
f 280 268 14
f 14 269 277
f 280 283 282
f 280 279 283
f 282 252 268
f 285 281 284
f 252 282 250
f 268 280 282
f 281 283 284
f 281 282 283
f 283 279 288
f 250 285 69
f 285 286 69
f 288 279 278
f 69 286 208
f 285 284 286
f 209 290 1
f 287 288 278
f 292 289 278
f 287 286 288
f 284 288 286
f 284 283 288
f 293 291 289
f 289 287 278
f 1 287 289
f 286 290 208
f 287 1 290
f 291 206 1
f 72 206 291
f 301 293 294
f 295 3 300
f 292 293 289
f 301 294 71
f 278 279 15
f 292 278 277
f 71 70 301
f 295 301 70
f 301 295 300
f 71 296 70
f 304 310 308
f 296 309 304
f 306 310 16
f 70 296 297
f 295 298 3
f 295 70 298
f 298 299 3
f 72 291 300
f 3 72 300
f 299 73 3
f 72 3 73
f 202 45 73
f 73 45 218
f 302 299 303
f 299 298 303
f 310 304 309
f 297 296 304
f 305 307 308
f 302 304 307
f 318 306 16
f 306 308 310
f 306 305 308
f 310 309 312
f 296 71 313
f 311 319 318
f 316 275 274
f 313 312 309
f 313 294 314
f 314 294 277
f 71 294 313
f 315 314 277
f 312 313 314
f 317 312 315
f 311 317 13
f 315 275 316
f 316 13 317
f 311 13 319
f 320 319 274
f 320 318 319
f 320 321 318
f 320 322 321
f 305 306 318
f 318 321 327
f 274 74 320
f 75 272 322
f 17 321 76
f 17 326 321
f 321 322 76
f 322 323 76
f 322 272 323
f 332 329 331
f 332 325 324
f 326 17 325
f 330 331 329
f 331 326 325
f 326 327 321
f 326 330 340
f 340 330 328
f 332 334 329
f 334 335 337
f 328 330 329
f 330 326 331
f 66 334 333
f 331 325 332
f 332 333 334
f 332 324 333
f 66 63 78
f 263 66 333
f 334 78 335
f 334 66 78
f 356 335 357
f 335 78 358
f 358 363 335
f 337 335 336
f 329 337 77
f 329 334 337
f 19 18 77
f 77 336 19
f 356 357 355
f 336 338 19
f 355 80 338
f 80 341 339
f 19 328 18
f 326 340 327
f 328 19 340
f 327 340 339
f 339 343 79
f 354 344 80
f 20 343 342
f 343 339 341
f 338 80 339
f 344 342 80
f 341 342 343
f 352 344 353
f 20 342 344
f 79 20 345
f 345 349 82
f 349 20 352
f 349 21 22
f 346 81 398
f 346 82 347
f 351 350 348
f 350 82 348
f 82 349 348
f 347 350 395
f 348 22 351
f 394 351 85
f 394 350 351
f 85 351 22
f 353 357 365
f 360 361 359
f 84 85 22
f 349 352 21
f 354 353 344
f 84 21 352
f 353 365 352
f 84 22 21
f 354 357 353
f 363 362 365
f 355 354 80
f 356 355 338
f 336 356 338
f 336 335 356
f 357 363 365
f 359 358 62
f 84 365 366
f 260 359 62
f 361 360 362
f 358 359 361
f 84 366 83
f 362 363 361
f 360 364 362
f 369 367 83
f 83 366 369
f 365 364 366
f 360 260 364
f 367 370 368
f 392 367 368
f 367 369 370
f 370 369 86
f 86 379 370
f 379 368 370
f 61 371 260
f 369 260 86
f 360 359 260
f 86 260 371
f 86 374 378
f 60 371 259
f 86 378 379
f 374 373 23
f 378 8 87
f 379 378 87
f 158 372 245
f 378 374 23
f 375 155 88
f 372 375 8
f 372 158 375
f 158 376 375
f 158 157 376
f 375 376 155
f 87 88 89
f 375 87 8
f 87 380 90
f 87 89 380
f 90 380 377
f 377 392 379
f 377 380 391
f 380 91 391
f 149 381 88
f 147 381 149
f 381 148 382
f 381 147 148
f 383 89 88
f 91 89 383
f 383 382 384
f 148 384 382
f 114 385 32
f 94 25 113
f 403 401 402
f 401 384 402
f 388 401 386
f 401 388 91
f 389 390 387
f 386 400 388
f 6 390 389
f 399 6 400
f 391 390 393
f 387 390 391
f 368 379 392
f 93 392 393
f 93 367 392
f 392 391 393
f 392 377 391
f 394 367 93
f 83 394 85
f 83 367 394
f 398 397 396
f 81 346 395
f 397 81 395
f 6 396 92
f 407 399 400
f 407 2 399
f 6 389 400
f 389 388 400
f 400 386 407
f 407 386 401
f 403 407 401
f 403 402 385
f 114 405 404
f 385 114 404
f 94 405 112
f 403 406 407
f 112 405 115
f 406 405 94
f 94 112 25
f 406 94 2
f 407 406 2
f 2 94 95
f 94 408 95
f 94 113 408
f 113 25 108
f 95 108 2
f 398 399 346
f 352 20 344
