v -6.6 -5.12195 0.663703
v -6.4 -7.80488 0.822514
v -2.4 -4.87805 0.638903
v -5 -2.68293 0.633735
v -5.4 -7.07317 0.856605
v -4.6 -8.78049 0.617462
v -8.6 -7.56098 0.637818
v -9.6 -6.34146 0.617973
v -7.2 -6.82927 0.637818
v -5.2 -2.43902 0.616552
v -4.6 -1.70732 0.64471
v -3.6 -0.731707 0.61678
v -3.2 -1.46341 0.661149
v -1.8 -3.41463 0.671183
v -5.8 -3.65854 0.795414
v -6.4 -5.36585 0.707782
v -5.4 -6.58537 0.871272
v -3.6 -7.31707 0.691945
v -7 -8.29268 0.72263
v -7.2 -9.02439 0.643498
v -5.4 -8.53659 0.67063
v -5.4 -8.29268 0.777225
v -6.6 -8.04878 0.672289
v -7.2 -7.07317 0.647208
v -6.6 -6.82927 0.67063
v -6.2 -7.07317 0.67063
v -4.6 -5.85366 0.74533
v -5.8 -6.09756 0.880194
v -7 -6.34146 0.630948
v -8.2 -5.60976 0.631851
v -8.4 -7.56098 0.637818
v -9.6 -4.63415 0.67063
v -8 -5.36585 0.630948
v -4.6 -1.21951 0.642312
v -6 -2.92683 0.724823
v -7.2 -3.41463 0.631851
v -6.8 -4.39024 0.72263
v -6.8 -5.12195 0.618271
v -6 -4.39024 0.701698
v -4.2 -4.39024 0.659648
v -4 -4.39024 0.663188
v -2.8 -4.39024 0.637818
v -3 -2.43902 0.652497
v -3.8 -3.41463 0.658171
v -4 -3.17073 0.662672
v -3.6 -1.95122 0.656717
v -3.4 -1.70732 0.637818
v -3.4 -1.21951 0.652497
v -3.2 -1.21951 0.622994
v -3.2 -1.95122 0.645122
v -2 -3.41463 0.672289
v -2 -4.14634 0.661149
v -1.6 -4.39024 0.675672
v -1.4 -4.63415 0.697738
v -0.6 -5.85366 0.616552
v -2 -6.58537 0.616566
v -2.2 -6.58537 0.616552
v -1.8 -5.60976 0.662672
v -3.8 -4.87805 0.695787
v -3.8 -5.60976 0.942857
v -4.6 -5.60976 0.697738
v -4.2 -7.07317 0.750068
v -4 -6.58537 0.898299
v -3 -5.85366 0.667379
v -8.6 -7.80488 0.628399
v -8.6 -8.04878 0.622793
v -6.2 -9.5122 0.64471
v -6.2 -9.26829 0.675672
v -6.6 -9.26829 0.782353
v -6.6 -8.78049 0.803411
v -6 -9.26829 0.628399
v -5.6 -8.78049 0.616552
v -5.8 -8.53659 0.63818
v -6.4 -8.78049 0.688183
v -6.8 -8.53659 0.798067
v -7.4 -8.53659 0.67063
v -7.2 -8.78049 0.643498
v -7.4 -8.78049 0.618271
v -8 -8.29268 0.711933
v -7.6 -7.56098 0.655287
v -7.4 -7.07317 0.617703
v -6.8 -6.82927 0.647208
v -7 -7.31707 0.655287
v -6.8 -7.56098 0.74533
v -6.8 -7.80488 0.825292
v -6.6 -7.31707 0.665788
v -6.2 -7.31707 0.711933
v -5.4 -7.31707 0.833696
v -5.4 -6.82927 0.871272
v -6 -6.82927 0.675672
v -6.2 -6.58537 0.673969
v -5.8 -6.58537 0.747691
v -5.6 -6.34146 0.883188
v -5.2 -5.85366 0.752461
v -6 -6.34146 0.731507
v -6.2 -5.85366 0.690054
v -6.8 -6.34146 0.623609
v -6.6 -6.58537 0.67063
v -6.4 -6.58537 0.679141
v -8.2 -6.58537 0.617703
v -7.2 -6.34146 0.639274
v -8.6 -5.85366 0.686333
v -8.4 -7.07317 0.617249
v -8.2 -7.80488 0.616552
v -9.4 -6.34146 0.617973
v -9.8 -5.85366 0.616552
v -9.8 -5.36585 0.616552
v -9.6 -5.36585 0.624691
v -9.8 -4.87805 0.61678
v -8.6 -4.63415 0.688183
v -8.8 -4.87805 0.738344
v -8.6 -5.60976 0.720455
v -8.4 -5.60976 0.720455
v -8 -5.60976 0.697738
v -8.2 -4.39024 0.648494
v -8.2 -4.14634 0.616552
v -9.4 -4.14634 0.617542
v -8.8 -4.14634 0.64471
v -8.8 -3.90244 0.616552
v -8.4 -3.90244 0.635725
v -9 -3.65854 0.616552
v -9.6 -3.90244 0.61947
v -9.2 -3.41463 0.616865
v -8.8 -3.41463 0.616552
v -6.4 -2.92683 0.695787
v -5.6 -1.70732 0.620649
v -5.4 -1.70732 0.616633
v -5.4 -1.95122 0.624691
v -5.8 -1.95122 0.620182
v -5.6 -1.95122 0.661149
v -5.4 -2.92683 0.754869
v -6.2 -3.17073 0.680907
v -5.8 -3.41463 0.795414
v -5.6 -3.65854 0.724823
v -6.6 -3.90244 0.764657
v -6.6 -3.65854 0.806102
v -6.6 -3.41463 0.806102
v -7 -3.41463 0.688183
v -7 -3.65854 0.688183
v -7.4 -3.65854 0.630072
v -7.4 -3.90244 0.630948
v -7 -3.90244 0.74533
v -6.8 -3.90244 0.830883
v -6.2 -4.39024 0.701698
v -7 -4.14634 0.811523
v -7.2 -4.14634 0.693856
v -6.4 -5.12195 0.695787
v -6.2 -5.12195 0.701698
v -6 -4.63415 0.701698
v -6 -4.14634 0.738344
v -5.8 -3.90244 0.752461
v -5.6 -4.63415 0.711933
v -5.6 -4.87805 0.682695
v -5.6 -5.12195 0.697738
v -5.2 -5.36585 0.714036
v -4.4 -5.12195 0.665788
v -4.4 -4.63415 0.636758
v -3.8 -4.39024 0.665788
v -4.2 -5.12195 0.648494
v -4 -5.12195 0.705735
v -3.8 -5.36585 0.886191
v -3.4 -5.12195 0.757293
v -3 -5.12195 0.701698
v -2.8 -4.87805 0.630072
v -2.8 -4.63415 0.637818
v -3.4 -4.87805 0.709848
v -3.6 -4.14634 0.736048
v -3.2 -3.90244 0.693856
v -2.8 -4.14634 0.65388
v -2.8 -3.65854 0.701698
v -3 -3.90244 0.691945
v -3.6 -3.90244 0.701698
v -4.8 -3.65854 0.661149
v -4.6 -4.14634 0.628399
v -4.8 -4.14634 0.664219
v -4.8 -4.39024 0.659648
v -5.2 -3.90244 0.729262
v -5.2 -3.41463 0.772154
v -4.2 -1.95122 0.649804
v -4.2 -2.68293 0.695787
v -4 -2.19512 0.655287
v -5 -1.95122 0.621143
v -5 -1.46341 0.630072
v -5.2 -1.70732 0.616552
v -4.8 -1.21951 0.647208
v -4.8 -0.97561 0.618597
v -3.8 -0.97561 0.64471
v -4 -0.97561 0.624691
v -3.4 -0.731707 0.61678
v -2.8 -1.46341 0.616566
v -3 -2.92683 0.659648
v -3.4 -2.92683 0.738344
v -3.4 -1.95122 0.656717
v -3 -3.17073 0.673969
v -3 -3.41463 0.716158
v -2.8 -2.92683 0.667379
v -2.6 -2.43902 0.61678
v -2.2 -2.43902 0.618951
v -2.2 -2.92683 0.649804
v -1.6 -3.41463 0.619333
v -2.2 -3.41463 0.64471
v -1.8 -4.63415 0.625378
v -1.8 -4.39024 0.625378
v -2.6 -4.63415 0.622793
v -2 -5.12195 0.679141
v -1.2 -4.63415 0.631851
v -1.2 -4.87805 0.665788
v -0.6 -5.36585 0.641538
v -0.2 -5.60976 0.61678
v -0.6 -5.60976 0.646788
v -1.4 -5.36585 0.65388
v -1.4 -6.09756 0.616566
v -2 -7.07317 0.622215
v -2.6 -7.31707 0.616552
v -2.2 -7.07317 0.61678
v -2.6 -6.58537 0.617249
v -2.6 -6.82927 0.617249
v -1.8 -7.07317 0.62403
v -1.8 -6.34146 0.652497
v -1.8 -5.36585 0.635725
v -2 -6.09756 0.684504
v -2.8 -6.09756 0.626093
v -2.6 -6.09756 0.64115
v -2.6 -6.34146 0.642312
v -3.8 -5.85366 0.954525
v -3.2 -5.60976 0.790149
v -3.6 -5.60976 0.977087
v -4.4 -6.09756 0.842204
v -4.4 -5.60976 0.697738
v -5 -6.09756 0.792775
v -4.8 -6.58537 0.740656
v -4.6 -6.58537 0.754869
v -4.2 -6.34146 0.960934
v -3.6 -6.82927 0.656717
v -4.4 -6.82927 0.754869
v -5 -7.07317 0.842204
v -4.8 -7.31707 0.738344
v -3.8 -7.07317 0.72263
v -3.6 -7.80488 0.656717
v -3.4 -7.07317 0.677395
v -3.4 -6.58537 0.656717
v -3.2 -6.58537 0.731507
v -3 -6.58537 0.677395
v -2.8 -6.82927 0.655764
v -3.4 -7.80488 0.656717
v -4.2 -8.53659 0.61668
v -4.4 -8.53659 0.618271
v -5 -8.53659 0.620649
v -4.8 -8.78049 0.616562
v -4.4 -8.78049 0.617462
v -8.2 -8.29268 0.631851
v -8.4 -8.04878 0.622793
v -8.2 -8.04878 0.616552
v -8.4 -7.80488 0.628399
v -8 -7.56098 0.647208
v -8 -7.80488 0.61668
v -8 -8.04878 0.616908
v -7.6 -8.29268 0.709848
v -7.8 -8.04878 0.616552
v -7.8 -7.80488 0.64115
v -7.6 -7.80488 0.664219
v -7.4 -7.80488 0.664219
v -7.6 -8.04878 0.616566
v -7.4 -8.29268 0.709848
v -7.6 -8.53659 0.67063
v -7.8 -8.29268 0.729262
v -8 -8.53659 0.616609
v -7.8 -8.53659 0.647208
v -7.6 -9.02439 0.618271
v -7.6 -8.78049 0.618271
v -7.8 -8.78049 0.616552
v -6.8 -9.5122 0.622408
v -7.4 -9.02439 0.618271
v -6.8 -9.02439 0.792775
v -7 -9.02439 0.757293
v -7 -9.26829 0.647208
v -6.6 -9.5122 0.64115
v -6.8 -9.26829 0.691945
v -6.6 -9.02439 0.803411
v -6.4 -9.02439 0.688183
v -6.4 -9.26829 0.714036
v -6.4 -9.5122 0.628399
v -6 -9.5122 0.623398
v -5.4 -9.02439 0.619744
v -5.4 -8.78049 0.619744
v -6.2 -9.02439 0.638903
v -6 -8.53659 0.626093
v -6.2 -8.29268 0.673969
v -6 -8.29268 0.699708
v -5.8 -8.04878 0.803411
v -5.8 -8.29268 0.750068
v -5.6 -8.53659 0.662672
v -5.2 -8.53659 0.64115
v -5.2 -8.78049 0.616552
v -5.2 -8.04878 0.733769
v -5.2 -8.29268 0.724823
v -5.6 -8.29268 0.792775
v -5.6 -8.04878 0.90135
v -5.4 -8.04878 0.868318
v -5.2 -7.80488 0.727034
v -5.4 -7.56098 0.874236
v -5.4 -7.80488 0.839357
v -5.6 -7.80488 0.825292
v -5.8 -7.56098 0.750068
v -5.8 -7.80488 0.750068
v -6 -8.04878 0.752461
v -6 -7.80488 0.825292
v -6.2 -7.80488 0.782353
v -6 -7.56098 0.711933
v -6.6 -7.80488 0.806102
v -6.6 -7.56098 0.803411
v -6.8 -8.04878 0.672289
v -6.6 -8.29268 0.819748
v -6.4 -8.04878 0.679141
v -6.2 -8.04878 0.679141
v -6.4 -8.29268 0.833696
v -6.2 -8.53659 0.626835
v -6.2 -8.78049 0.638903
v -6.8 -8.78049 0.792775
v -6.4 -8.53659 0.757293
v -6.6 -8.53659 0.816994
v -6.8 -8.29268 0.803411
v -7 -8.53659 0.795414
v -7 -8.78049 0.757293
v -7.2 -8.53659 0.688183
v -7.2 -8.29268 0.695787
v -7.4 -8.04878 0.616566
v -7.2 -7.80488 0.658171
v -7.2 -8.04878 0.617064
v -7 -8.04878 0.718297
v -7 -7.80488 0.798067
v -7 -7.56098 0.684504
v -7.2 -7.56098 0.662672
v -7.6 -7.31707 0.65388
v -7.4 -7.31707 0.65388
v -7.4 -7.56098 0.655287
v -7 -7.07317 0.64471
v -7.2 -7.31707 0.65388
v -7.6 -7.07317 0.617703
v -7.2 -6.58537 0.637818
v -7 -6.58537 0.617883
v -7 -6.82927 0.617883
v -6.4 -6.82927 0.679141
v -6.8 -6.58537 0.647208
v -6.6 -6.34146 0.652497
v -6.4 -6.34146 0.656717
v -6.2 -6.34146 0.701698
v -6.2 -6.82927 0.673969
v -6.4 -7.07317 0.655287
v -6.6 -7.07317 0.655287
v -6.8 -7.07317 0.652497
v -6.8 -7.31707 0.665788
v -6.4 -7.31707 0.668994
v -6.4 -7.56098 0.811523
v -6.2 -7.56098 0.727034
v -6 -7.31707 0.707782
v -6 -7.07317 0.757293
v -5.8 -7.07317 0.782353
v -5.6 -7.07317 0.779782
v -5.8 -7.31707 0.716158
v -5.6 -7.56098 0.787537
v -5.2 -7.56098 0.822514
v -5.2 -7.31707 0.892226
v -5.2 -7.07317 0.919839
v -5.6 -7.31707 0.720455
v -5.6 -6.82927 0.774683
v -5.6 -6.58537 0.774683
v -5.2 -6.58537 0.830883
v -5.2 -6.82927 0.830883
v -5.2 -6.34146 0.886191
v -5.4 -6.34146 0.845062
v -5.4 -6.09756 0.772154
v -5.6 -6.09756 0.871272
v -5.8 -6.34146 0.787537
v -5.8 -6.82927 0.747691
v -6 -6.58537 0.675672
v -6 -6.09756 0.757293
v -6.2 -6.09756 0.672289
v -6.4 -6.09756 0.656717
v -6.4 -5.85366 0.664219
v -6.4 -5.60976 0.690054
v -6.2 -5.60976 0.707782
v -6 -5.60976 0.743767
v -6 -5.85366 0.757293
v -5.8 -5.85366 0.819748
v -5.4 -5.85366 0.754067
v -5.2 -6.09756 0.777225
v -5.4 -5.60976 0.724823
v -5.6 -5.85366 0.798067
v -5.8 -5.60976 0.754869
v -5.6 -5.60976 0.731507
v -5.2 -5.60976 0.727034
v -5 -5.60976 0.707782
v -5.2 -5.12195 0.682695
v -5.4 -5.36585 0.711933
v -5.4 -5.12195 0.690054
v -5.8 -5.12195 0.693856
v -5.8 -5.36585 0.709848
v -5.6 -5.36585 0.716158
v -6 -5.36585 0.699708
v -6.2 -5.36585 0.709848
v -6 -5.12195 0.690054
v -6.6 -5.36585 0.675672
v -6.8 -5.36585 0.636758
v -6.8 -5.60976 0.645947
v -6.6 -5.60976 0.675672
v -6.6 -5.85366 0.65388
v -6.6 -6.09756 0.655287
v -6.8 -6.09756 0.617973
v -6.8 -5.85366 0.620036
v -7.8 -5.12195 0.63278
v -7.8 -5.36585 0.649804
v -7.8 -5.60976 0.628399
v -8.2 -5.36585 0.659648
v -8 -5.12195 0.649804
v -8.2 -5.12195 0.630072
v -8.2 -4.87805 0.651139
v -8.4 -5.12195 0.742985
v -8.6 -5.12195 0.742985
v -8.8 -5.60976 0.664219
v -8.6 -5.36585 0.747691
v -8.4 -5.36585 0.747691
v -8.4 -5.85366 0.686333
v -8.8 -5.85366 0.635725
v -8.6 -6.09756 0.61668
v -8.4 -6.09756 0.61668
v -8.2 -5.85366 0.620182
v -8 -5.85366 0.628399
v -8 -6.82927 0.616552
v -7.8 -7.07317 0.625378
v -7.8 -7.31707 0.656717
v -7.8 -7.56098 0.655287
v -8.2 -7.56098 0.616552
v -8 -7.31707 0.642312
v -8 -7.07317 0.621665
v -8.2 -6.82927 0.617703
v -8.2 -7.07317 0.616552
v -8.2 -7.31707 0.616552
v -8.4 -7.31707 0.616552
v -8.6 -7.31707 0.616552
v -8.6 -7.07317 0.617249
v -8.4 -6.34146 0.616552
v -9.4 -6.09756 0.616552
v -9.6 -5.85366 0.616552
v -9.6 -6.09756 0.616552
v -9.8 -5.60976 0.617542
v -10 -5.60976 0.617542
v -9.4 -5.36585 0.624691
v -9.6 -5.60976 0.616609
v -9.4 -5.85366 0.616552
v -9.2 -5.85366 0.652497
v -9 -5.85366 0.635725
v -9 -5.60976 0.664219
v -9 -5.36585 0.67063
v -9.2 -5.60976 0.668994
v -9.4 -5.60976 0.616609
v -9.2 -5.36585 0.616552
v -8.8 -5.12195 0.742985
v -8.8 -5.36585 0.67063
v -9 -5.12195 0.742985
v -9 -4.87805 0.738344
v -9.2 -5.12195 0.650694
v -9.8 -5.12195 0.616552
v -9.6 -5.12195 0.616908
v -9.4 -5.12195 0.616908
v -10 -5.36585 0.616552
v -10 -5.12195 0.616552
v -10 -4.87805 0.61678
v -9.6 -4.87805 0.642312
v -9.4 -4.87805 0.642312
v -9.6 -4.39024 0.67063
v -9.6 -4.14634 0.617542
v -9.4 -4.39024 0.67063
v -9.2 -4.14634 0.619744
v -9.2 -3.90244 0.616552
v -9.4 -3.90244 0.61947
v -9 -3.90244 0.616552
v -9 -4.14634 0.64471
v -9 -4.39024 0.759733
v -8.8 -4.39024 0.759733
v -9 -4.63415 0.759733
v -9.2 -4.39024 0.714036
v -9.4 -4.63415 0.67063
v -9.2 -4.87805 0.695787
v -9.2 -4.63415 0.714036
v -8.6 -4.87805 0.688183
v -8.8 -4.63415 0.759733
v -8.6 -4.39024 0.688183
v -8.4 -4.63415 0.688183
v -8.2 -4.63415 0.648494
v -8.4 -4.87805 0.688183
v -8 -4.87805 0.709848
v -7.8 -4.87805 0.61678
v -8 -4.63415 0.665788
v -8 -4.39024 0.665788
v -7.6 -4.14634 0.658171
v -8.4 -4.14634 0.656717
v -8.4 -4.39024 0.688183
v -8.6 -4.14634 0.656717
v -8.6 -3.90244 0.635725
v -8.6 -3.65854 0.616552
v -8.8 -3.65854 0.616552
v -7.6 -3.17073 0.617462
v -8.8 -3.17073 0.616865
v -9 -3.17073 0.616865
v -9 -3.41463 0.616552
v -9.2 -3.65854 0.616865
v -9.2 -3.17073 0.617883
v -5 -1.70732 0.616552
v -5.8 -2.19512 0.667379
v -6 -2.19512 0.637818
v -6.2 -2.43902 0.629222
v -6 -2.43902 0.691945
v -5.6 -2.43902 0.634717
v -5.4 -2.19512 0.616552
v -5.6 -2.19512 0.64471
v -5.2 -1.95122 0.621665
v -5.2 -2.19512 0.616552
v -5.4 -2.43902 0.616552
v -5.2 -2.68293 0.638903
v -5.4 -2.68293 0.659648
v -5.6 -2.68293 0.651139
v -5.6 -3.17073 0.720455
v -5.2 -2.92683 0.690054
v -5 -3.17073 0.688183
v -5.2 -3.17073 0.733769
v -5.4 -3.17073 0.72263
v -5 -3.41463 0.738344
v -5.4 -3.65854 0.718297
v -5.4 -3.41463 0.718297
v -5.6 -3.41463 0.724823
v -5.8 -3.17073 0.772154
v -6 -3.41463 0.767141
v -6 -3.65854 0.767141
v -6.2 -3.65854 0.679141
v -6.2 -3.41463 0.679141
v -6 -3.17073 0.747691
v -6.2 -2.68293 0.64115
v -5.8 -2.92683 0.714036
v -5.6 -2.92683 0.680907
v -5.8 -2.68293 0.668994
v -5.8 -2.43902 0.667379
v -6 -2.68293 0.699708
v -6.6 -2.68293 0.626835
v -6.4 -2.68293 0.647208
v -6.2 -2.92683 0.65388
v -6.6 -2.92683 0.709848
v -6.8 -2.92683 0.662672
v -7 -2.92683 0.61678
v -7 -3.17073 0.623398
v -7.2 -3.17073 0.616552
v -7.4 -3.17073 0.617462
v -7.6 -3.41463 0.630072
v -7.6 -3.65854 0.630072
v -7.4 -3.41463 0.630072
v -6.8 -3.65854 0.762187
v -6.8 -3.41463 0.762187
v -6.8 -3.17073 0.674537
v -6.6 -3.17073 0.795414
v -6.4 -3.17073 0.779782
v -6.4 -3.41463 0.750068
v -6.4 -3.90244 0.729262
v -6.4 -4.14634 0.733769
v -6.4 -4.39024 0.703707
v -6.6 -4.39024 0.714036
v -6.6 -4.14634 0.828081
v -6.4 -3.65854 0.750068
v -7.2 -3.90244 0.661149
v -7.2 -3.65854 0.631851
v -7.6 -3.90244 0.630948
v -7.4 -4.14634 0.658171
v -7 -4.39024 0.711933
v -6.8 -4.14634 0.859518
v -7.2 -4.39024 0.627091
v -7.4 -4.39024 0.616552
v -7.2 -4.63415 0.627091
v -7 -4.87805 0.651139
v -6.8 -4.87805 0.658171
v -7 -4.63415 0.711933
v -6.8 -4.63415 0.72263
v -6.6 -4.63415 0.714036
v -6.4 -4.63415 0.703707
v -6.6 -4.87805 0.648494
v -6.4 -4.87805 0.677395
v -6.2 -4.87805 0.691945
v -5.8 -4.87805 0.682695
v -5.8 -4.63415 0.733769
v -6 -4.87805 0.688183
v -6.2 -4.63415 0.701698
v -6.2 -4.14634 0.677395
v -6.2 -3.90244 0.682695
v -6 -3.90244 0.686333
v -5.8 -4.14634 0.714036
v -5.8 -4.39024 0.733769
v -5.6 -4.39024 0.711933
v -5.4 -4.14634 0.709848
v -5.6 -4.14634 0.759733
v -5.6 -3.90244 0.736048
v -5.2 -3.65854 0.772154
v -5.4 -3.90244 0.711933
v -5.2 -4.14634 0.747691
v -5 -4.63415 0.661149
v -5.2 -4.39024 0.679141
v -5.4 -4.39024 0.682695
v -5.4 -4.63415 0.682695
v -5.4 -4.87805 0.686333
v -5.2 -4.63415 0.679141
v -5.2 -4.87805 0.668994
v -4.8 -4.87805 0.627869
v -4.8 -5.12195 0.633735
v -4.6 -5.12195 0.665788
v -4.6 -4.63415 0.636758
v -4.8 -4.63415 0.659648
v -5 -4.87805 0.652497
v -5 -4.39024 0.661149
v -5 -4.14634 0.673969
v -5 -3.90244 0.688183
v -4.8 -3.90244 0.643498
v -4.6 -3.90244 0.616552
v -4.6 -4.39024 0.636758
v -4.4 -4.14634 0.628399
v -4.2 -4.14634 0.64471
v -4.4 -3.90244 0.616552
v -4.2 -3.90244 0.635725
v -4 -3.90244 0.659648
v -4 -4.14634 0.679141
v -4 -4.63415 0.663188
v -4.2 -4.63415 0.659648
v -4.4 -4.39024 0.636758
v -4.6 -4.87805 0.64471
v -4.4 -4.87805 0.64471
v -4.2 -4.87805 0.647208
v -3.8 -5.12195 0.720455
v -4 -4.87805 0.684504
v -3.8 -4.63415 0.665788
v -3.6 -4.63415 0.709848
v -3.4 -4.63415 0.709848
v -3.6 -4.87805 0.709848
v -3.2 -5.12195 0.764657
v -3 -4.87805 0.709848
v -2.6 -4.87805 0.623609
v -3 -4.63415 0.675672
v -3.2 -4.87805 0.803411
v -3.2 -4.63415 0.784938
v -3.2 -4.39024 0.784938
v -3.2 -4.14634 0.677395
v -3 -4.39024 0.675672
v -2.6 -3.90244 0.656717
v -2.8 -3.90244 0.672289
v -3 -4.14634 0.668994
v -3.4 -3.90244 0.701698
v -3.4 -4.14634 0.736048
v -3.4 -4.39024 0.709848
v -3.6 -4.39024 0.709848
v -3.8 -4.14634 0.672289
v -3.8 -3.90244 0.680907
v -3.6 -3.65854 0.675672
v -3.8 -3.65854 0.658171
v -3.6 -3.41463 0.675672
v -3.4 -3.41463 0.675672
v -3.2 -3.41463 0.784938
v -3.4 -3.65854 0.675672
v -3.2 -3.65854 0.784938
v -3 -3.65854 0.716158
v -2.6 -3.65854 0.673969
v -2.6 -3.41463 0.673969
v -2.8 -3.41463 0.701698
v -3.2 -3.17073 0.714036
v -2.8 -3.17073 0.699708
v -2.6 -2.92683 0.675672
v -2.6 -3.17073 0.688183
v -2.8 -2.68293 0.661149
v -3 -2.68293 0.652497
v -3.2 -2.68293 0.661149
v -3.4 -2.68293 0.673969
v -3.2 -2.92683 0.662672
v -3.4 -3.17073 0.701698
v -3.6 -3.17073 0.701698
v -3.6 -2.92683 0.738344
v -3.8 -2.68293 0.693856
v -3.8 -2.92683 0.718297
v -4 -2.92683 0.740656
v -4.4 -2.92683 0.662672
v -4.4 -3.17073 0.633735
v -4.2 -2.92683 0.679141
v -4.2 -3.17073 0.647637
v -3.8 -3.17073 0.664219
v -4 -3.41463 0.665788
v -4 -3.65854 0.665788
v -4.4 -3.65854 0.629222
v -4.2 -3.65854 0.636758
v -4.2 -3.41463 0.636758
v -4.4 -3.41463 0.629222
v -4.6 -3.41463 0.629222
v -4.6 -3.65854 0.629222
v -5 -3.65854 0.738344
v -4.8 -3.41463 0.661149
v -4.8 -3.17073 0.64115
v -4.8 -2.92683 0.651139
v -4.6 -2.92683 0.662672
v -4.6 -3.17073 0.633735
v -4.6 -2.68293 0.67063
v -4.8 -2.68293 0.661149
v -5 -2.92683 0.636758
v -4.8 -2.43902 0.648494
v -5 -2.43902 0.624691
v -5 -2.19512 0.625378
v -4.8 -2.19512 0.623398
v -4.6 -2.19512 0.65388
v -4.6 -2.43902 0.662672
v -4.4 -2.68293 0.67063
v -4.4 -2.43902 0.662672
v -4 -2.68293 0.727034
v -4 -2.43902 0.67063
v -4.2 -2.43902 0.679141
v -4.2 -2.19512 0.677395
v -4.4 -1.95122 0.649804
v -4 -1.95122 0.65388
v -4 -1.70732 0.657202
v -4.2 -1.46341 0.642707
v -4.2 -1.70732 0.645947
v -4.4 -1.70732 0.64471
v -4.6 -1.46341 0.64115
v -4.6 -1.95122 0.649804
v -4.4 -2.19512 0.65388
v -4.8 -1.95122 0.619333
v -4.8 -1.70732 0.64115
v -4.8 -1.46341 0.647208
v -5 -1.21951 0.628399
v -4.6 -0.97561 0.620493
v -4.2 -0.731707 0.61678
v -4 -0.731707 0.629222
v -4.2 -0.97561 0.633735
v -4 -1.21951 0.63818
v -4.2 -1.21951 0.648494
v -4.4 -0.97561 0.620493
v -4.4 -1.21951 0.642312
v -4.4 -1.46341 0.64115
v -4 -1.46341 0.658171
v -3.8 -1.46341 0.640014
v -3.6 -1.21951 0.652497
v -3.4 -1.46341 0.657202
v -3.4 -0.97561 0.631249
v -3.6 -0.97561 0.631249
v -3.8 -1.21951 0.648931
v -3.8 -0.731707 0.62403
v -3 -1.46341 0.628134
v -2.8 -1.95122 0.620338
v -3 -1.95122 0.645122
v -2.8 -1.70732 0.61696
v -3 -1.70732 0.639274
v -3.2 -1.70732 0.661657
v -3.6 -1.46341 0.657202
v -3.8 -1.70732 0.63278
v -3.8 -1.95122 0.649804
v -3.6 -1.70732 0.637818
v -3 -2.19512 0.650249
v -3.4 -2.19512 0.642312
v -3.6 -2.19512 0.642312
v -3.8 -2.19512 0.645947
v -3.8 -2.43902 0.686333
v -3.6 -2.43902 0.651139
v -3.6 -2.68293 0.673969
v -3.4 -2.43902 0.651139
v -3.2 -2.43902 0.649804
v -3.2 -2.19512 0.649804
v -2.8 -2.19512 0.628399
v -2.6 -2.19512 0.616552
v -2.8 -2.43902 0.645947
v -2.4 -2.43902 0.628399
v -2 -2.92683 0.616552
v -2.4 -2.68293 0.659648
v -2.6 -2.68293 0.649804
v -2.4 -2.92683 0.672289
v -2.2 -2.68293 0.627604
v -2.2 -3.17073 0.637818
v -2 -3.17073 0.637818
v -2.4 -3.17073 0.656717
v -2.4 -3.41463 0.65388
v -2.4 -3.65854 0.65388
v -2.2 -3.65854 0.64471
v -2 -3.65854 0.672289
v -1.8 -3.65854 0.671183
v -1.8 -3.17073 0.618951
v -1.6 -3.65854 0.619333
v -1.4 -3.65854 0.616552
v -1.6 -3.90244 0.643498
v -1.6 -4.14634 0.664219
v -1.8 -4.14634 0.686333
v -2 -4.39024 0.636758
v -1.8 -3.90244 0.684504
v -2 -3.90244 0.656717
v -2.2 -3.90244 0.652959
v -2.2 -4.14634 0.633735
v -2.4 -3.90244 0.652497
v -2.6 -4.14634 0.665788
v -2.4 -4.14634 0.662165
v -2.2 -4.39024 0.63607
v -2.2 -4.63415 0.63607
v -2.4 -4.39024 0.620182
v -2.6 -4.39024 0.622793
v -2.4 -4.63415 0.620182
v -2.2 -4.87805 0.660649
v -2.2 -5.12195 0.680907
v -1.8 -4.87805 0.638903
v -2 -4.87805 0.668994
v -2 -4.63415 0.636758
v -1.6 -4.63415 0.675672
v -1.6 -4.87805 0.637818
v -1.6 -5.12195 0.621143
v -1.4 -4.87805 0.716158
v -1 -4.87805 0.616552
v -1.2 -4.39024 0.631851
v -1.4 -4.39024 0.697738
v -1.4 -4.14634 0.664219
v -1.4 -3.90244 0.618951
v -1.2 -3.90244 0.616908
v -1.2 -4.14634 0.661149
v -0.4 -5.36585 0.638903
v -0.4 -5.60976 0.661149
v -0.8 -5.60976 0.643498
v -0.6 -5.12195 0.616609
v -0.8 -5.12195 0.617249
v -1 -5.36585 0.626835
v -1 -5.12195 0.616552
v -1.2 -5.12195 0.691945
v -1.2 -5.36585 0.724823
v -1 -5.60976 0.616609
v -0.8 -5.36585 0.62403
v -1 -5.85366 0.618597
v -1.2 -5.85366 0.616908
v -1.2 -5.60976 0.677395
v -0.8 -5.85366 0.627604
v -0.4 -5.85366 0.624691
v -0.2 -5.85366 0.616552
v -1.6 -7.31707 0.618597
v -1.6 -7.56098 0.627604
v -1.8 -7.56098 0.655287
v -1.8 -7.31707 0.652497
v -2 -7.31707 0.647208
v -2 -7.56098 0.651139
v -2.2 -7.56098 0.620182
v -2.2 -7.31707 0.618597
v -2.4 -7.31707 0.616552
v -2.4 -7.07317 0.616552
v -2.2 -6.82927 0.616552
v -2 -6.82927 0.616566
v -2.4 -6.82927 0.616552
v -2.4 -6.58537 0.616552
v -2.4 -6.34146 0.662672
v -2.2 -6.34146 0.668994
v -2.2 -6.09756 0.709848
v -2.4 -5.85366 0.707782
v -2 -5.85366 0.731507
v -1.8 -5.85366 0.684504
v -2 -6.34146 0.655287
v -1.8 -6.09756 0.658171
v -1.6 -6.34146 0.629222
v -1.4 -5.85366 0.655287
v -1.6 -6.09756 0.626835
v -1.6 -5.85366 0.636758
v -2 -5.60976 0.714036
v -1.6 -5.60976 0.629222
v -1.4 -5.60976 0.686333
v -1.4 -5.12195 0.683299
v -1.6 -5.36585 0.625378
v -1.8 -5.12195 0.640014
v -2 -5.36585 0.677395
v -2.2 -5.60976 0.709848
v -2.2 -5.85366 0.762187
v -2.4 -5.60976 0.690054
v -2.2 -5.36585 0.691945
v -2.4 -5.12195 0.65388
v -2.6 -5.12195 0.651139
v -2.8 -5.12195 0.621143
v -2.8 -5.36585 0.630072
v -2.6 -5.36585 0.65388
v -2.6 -5.60976 0.649804
v -2.4 -5.36585 0.667379
v -2.8 -5.60976 0.617249
v -2.6 -5.85366 0.640772
v -2.4 -6.09756 0.693856
v -3 -6.09756 0.680907
v -2.8 -5.85366 0.616908
v -3 -5.60976 0.642312
v -3.2 -5.85366 0.784938
v -3.2 -6.09756 0.868318
v -3.2 -6.34146 0.836521
v -3.4 -6.09756 0.847932
v -3.6 -6.09756 0.847932
v -3.4 -5.85366 0.892226
v -3.6 -5.85366 0.892226
v -3.4 -5.60976 0.977087
v -3.2 -5.36585 0.814252
v -3 -5.36585 0.662672
v -3.4 -5.36585 0.853704
v -3.6 -5.12195 0.757293
v -3.6 -5.36585 0.853704
v -4 -5.36585 0.784938
v -4 -5.60976 0.825292
v -4.2 -5.85366 0.762187
v -4.2 -5.60976 0.690054
v -4.2 -5.36585 0.652959
v -4.8 -5.36585 0.642312
v -5 -5.12195 0.65388
v -5 -5.36585 0.677395
v -4.8 -5.60976 0.693856
v -4.6 -5.36585 0.64471
v -4.4 -5.36585 0.64471
v -4.6 -6.09756 0.842204
v -4.8 -5.85366 0.733769
v -5 -5.85366 0.738344
v -4.8 -6.09756 0.830883
v -4.6 -6.34146 1
v -4.4 -6.34146 1
v -4 -6.34146 0.889204
v -4.2 -6.09756 0.847932
v -4.4 -5.85366 0.74533
v -4 -5.85366 0.954525
v -4 -6.09756 0.993419
v -3.8 -6.09756 0.865375
v -4.2 -6.58537 0.784938
v -3.8 -6.58537 0.684504
v -4 -6.82927 0.898299
v -4.4 -7.07317 0.74533
v -4.2 -6.82927 0.784938
v -4.4 -6.58537 0.754869
v -4.8 -6.34146 0.913641
v -5 -6.58537 0.762187
v -5 -6.34146 0.907477
v -5 -6.82927 0.762187
v -4.8 -6.82927 0.740656
v -4.6 -6.82927 0.754869
v -4.6 -7.07317 0.74533
v -4.8 -7.07317 0.740656
v -5 -7.31707 0.819748
v -5 -7.56098 0.731507
v -4.8 -7.56098 0.718297
v -4.6 -7.31707 0.703707
v -4.2 -7.56098 0.691945
v -4.4 -7.31707 0.703707
v -4.2 -7.31707 0.691945
v -4 -7.07317 0.727034
v -4 -7.31707 0.697738
v -4 -7.56098 0.705735
v -3.8 -7.31707 0.686333
v -3.4 -7.56098 0.714036
v -3.2 -7.56098 0.643498
v -3.2 -7.31707 0.659648
v -3.4 -7.31707 0.691945
v -3.6 -7.07317 0.677395
v -3.8 -6.82927 0.684504
v -3.6 -6.34146 0.845062
v -3.8 -6.34146 0.868318
v -3.4 -6.34146 0.845062
v -3.6 -6.58537 0.656717
v -3.4 -6.82927 0.656717
v -3.2 -6.82927 0.731507
v -3 -6.82927 0.677395
v -3 -6.34146 0.711933
v -2.8 -6.34146 0.637818
v -2.8 -6.58537 0.655764
v -2.8 -7.07317 0.617249
v -2.6 -7.07317 0.616552
v -3 -7.07317 0.633735
v -3.2 -7.07317 0.647208
v -3 -7.31707 0.618715
v -2.8 -7.31707 0.616552
v -2.8 -7.56098 0.616908
v -3 -7.56098 0.616908
v -3 -7.80488 0.619079
v -3.2 -7.80488 0.628399
v -3 -8.04878 0.617249
v -3.8 -8.04878 0.629222
v -3.6 -8.04878 0.61989
v -3.2 -8.04878 0.616552
v -3.4 -8.04878 0.61989
v -3.6 -7.56098 0.714036
v -3.8 -7.56098 0.686333
v -4 -7.80488 0.672289
v -3.8 -7.80488 0.668994
v -4.2 -7.80488 0.684504
v -4.4 -7.80488 0.677395
v -4.4 -7.56098 0.691945
v -4.6 -7.56098 0.691945
v -4.6 -7.80488 0.677395
v -4.8 -7.80488 0.72263
v -5 -7.80488 0.688183
v -5 -8.04878 0.699708
v -4.8 -8.04878 0.695787
v -4.6 -8.04878 0.655287
v -4.4 -8.29268 0.677395
v -4.8 -8.29268 0.684504
v -5 -8.29268 0.691945
v -4.8 -8.53659 0.62403
v -4.6 -8.29268 0.677395
v -4.6 -8.53659 0.618271
v -4.2 -8.29268 0.662672
v -4.2 -8.04878 0.65388
v -4.4 -8.04878 0.655287
v -4 -8.04878 0.654349
v -4 -8.29268 0.616566
v -4.2 -9.02439 0.616566
v -4.4 -9.02439 0.617462
v -4.2 -8.78049 0.616566
v -4.8 -9.02439 0.616562
v -5 -8.78049 0.616552
v -4.6 -9.02439 0.617462
v -2 -7.80488 0.630072
v -1.8 -7.80488 0.626093
f 147 1 16
f 403 1 38
f 601 616 177
f 161 60 227
f 337 9 24
f 675 192 676
f 942 925 941
f 907 27 61
f 306 289 291
f 284 71 283
f 443 445 105
f 412 405 404
f 363 5 88
f 724 709 725
f 706 518 10
f 126 508 505
f 738 721 720
f 745 740 753
f 623 619 621
f 750 190 747
f 542 510 511
f 346 99 91
f 564 589 144
f 387 230 94
f 563 590 562
f 987 938 937
f 961 216 224
f 65 66 252
f 311 84 310
f 281 69 282
f 294 21 285
f 319 70 75
f 314 2 310
f 307 290 305
f 290 291 297
f 351 86 350
f 333 336 328
f 396 155 394
f 348 90 91
f 352 84 311
f 365 360 361
f 927 232 235
f 696 178 599
f 347 379 346
f 370 371 368
f 341 29 101
f 406 380 381
f 462 457 454
f 412 33 413
f 427 423 426
f 345 409 97
f 254 31 7
f 431 434 432
f 415 416 33
f 413 428 101
f 118 480 488
f 483 32 470
f 720 721 719
f 537 532 35
f 546 35 538
f 495 494 575
f 562 136 135
f 568 140 141
f 578 577 38
f 629 157 628
f 149 587 39
f 629 628 40
f 800 797 796
f 636 635 638
f 672 673 196
f 638 162 166
f 201 779 781
f 672 43 673
f 690 695 623
f 645 653 644
f 598 134 15
f 663 662 168
f 759 758 46
f 763 761 680
f 48 742 13
f 734 745 188
f 735 734 733
f 186 730 731
f 13 49 48
f 752 13 742
f 752 50 749
f 47 756 193
f 679 677 192
f 803 3 804
f 51 201 782
f 790 202 203
f 789 53 788
f 867 220 866
f 202 809 808
f 835 836 837
f 828 824 827
f 856 219 221
f 882 223 850
f 628 632 634
f 650 646 647
f 952 63 924
f 644 637 643
f 613 609 630
f 918 228 917
f 934 935 939
f 900 225 60
f 952 234 923
f 217 962 244
f 886 883 64
f 857 221 219
f 283 1008 1006
f 249 1006 1008
f 840 213 215
f 7 65 254
f 322 19 75
f 265 78 76
f 270 273 78
f 282 67 281
f 281 67 68
f 283 1006 284
f 283 68 67
f 281 279 69
f 280 286 74
f 312 330 322
f 324 77 275
f 72 286 71
f 297 291 292
f 316 320 317
f 297 21 22
f 279 280 70
f 74 320 321
f 325 76 77
f 271 268 267
f 323 75 19
f 78 77 76
f 20 275 77
f 270 78 265
f 20 77 78
f 332 333 331
f 253 252 251
f 432 80 431
f 335 81 339
f 24 9 81
f 9 339 81
f 337 351 342
f 25 98 344
f 81 335 338
f 354 311 2
f 80 261 262
f 85 310 84
f 310 85 23
f 338 332 83
f 354 86 311
f 351 82 342
f 349 87 26
f 315 2 314
f 939 935 237
f 358 90 357
f 367 366 89
f 366 375 359
f 87 309 356
f 374 93 28
f 343 348 99
f 376 92 95
f 358 359 375
f 367 93 374
f 377 374 28
f 910 228 27
f 385 384 28
f 372 373 371
f 345 98 99
f 347 376 95
f 577 412 404
f 385 28 373
f 404 405 406
f 29 341 344
f 29 344 97
f 347 91 376
f 25 343 98
f 348 26 357
f 425 102 424
f 439 440 31
f 340 341 101
f 456 455 448
f 452 105 425
f 446 107 466
f 102 112 420
f 465 448 457
f 433 438 439
f 65 7 8
f 8 440 105
f 260 255 256
f 433 31 104
f 8 7 440
f 424 102 420
f 446 447 106
f 446 449 107
f 418 419 422
f 463 109 468
f 464 109 463
f 458 419 111
f 479 480 478
f 423 112 102
f 415 33 412
f 423 113 112
f 30 114 414
f 414 114 33
f 428 427 426
f 574 146 571
f 554 140 553
f 417 416 415
f 495 116 115
f 477 121 507
f 473 117 472
f 507 121 123
f 499 119 118
f 485 482 473
f 500 497 120
f 502 124 506
f 500 501 502
f 476 474 475
f 32 471 468
f 507 475 477
f 468 472 122
f 503 552 549
f 502 121 119
f 506 121 502
f 503 504 501
f 551 138 550
f 130 128 126
f 547 559 560
f 538 512 545
f 509 182 726
f 184 127 517
f 504 503 549
f 539 541 543
f 710 705 702
f 126 128 127
f 126 129 130
f 510 516 129
f 516 514 519
f 530 529 599
f 520 10 519
f 547 560 125
f 537 133 532
f 134 133 15
f 537 35 546
f 151 598 15
f 685 45 682
f 556 143 135
f 590 144 39
f 139 556 138
f 534 535 592
f 544 547 125
f 137 567 561
f 139 138 36
f 560 559 561
f 555 569 36
f 142 143 139
f 552 503 555
f 576 575 493
f 572 145 146
f 569 139 36
f 569 142 139
f 556 135 136
f 145 573 142
f 573 565 566
f 150 590 39
f 581 565 37
f 568 145 142
f 573 566 143
f 570 571 141
f 574 575 576
f 577 576 411
f 401 400 148
f 582 589 564
f 582 564 565
f 147 16 401
f 144 149 39
f 396 154 395
f 593 151 592
f 151 15 534
f 533 534 15
f 594 39 587
f 620 175 176
f 588 585 402
f 587 586 153
f 400 401 383
f 397 398 399
f 588 149 589
f 393 155 392
f 908 61 229
f 632 631 159
f 899 60 161
f 621 174 629
f 396 153 154
f 625 626 655
f 41 627 635
f 611 908 909
f 628 634 627
f 899 161 160
f 633 59 634
f 159 899 160
f 885 64 884
f 897 162 638
f 165 164 641
f 643 163 640
f 884 880 885
f 204 165 641
f 641 3 204
f 653 654 637
f 640 163 875
f 635 59 638
f 162 639 166
f 656 655 167
f 637 166 643
f 650 168 646
f 651 172 652
f 204 802 801
f 171 168 650
f 669 191 194
f 677 660 661
f 649 171 169
f 664 195 661
f 657 172 651
f 622 623 621
f 618 174 619
f 691 690 624
f 688 689 658
f 696 528 178
f 617 616 175
f 620 612 157
f 177 600 601
f 608 605 606
f 134 598 600
f 151 593 597
f 525 524 526
f 531 133 134
f 739 740 734
f 708 182 707
f 704 698 699
f 673 191 196
f 755 718 760
f 725 709 712
f 183 509 727
f 518 515 10
f 728 185 729
f 729 185 186
f 127 128 517
f 728 723 185
f 185 34 186
f 744 187 741
f 731 736 733
f 743 189 12
f 49 747 190
f 667 170 665
f 758 193 46
f 679 678 677
f 660 678 659
f 766 50 193
f 50 47 193
f 775 199 771
f 676 192 668
f 663 664 661
f 667 665 666
f 670 774 773
f 748 768 750
f 667 195 170
f 771 777 784
f 198 784 200
f 818 813 822
f 206 813 814
f 775 771 198
f 14 51 783
f 779 671 666
f 776 199 774
f 816 817 786
f 807 805 202
f 808 53 203
f 790 203 52
f 202 808 203
f 794 797 798
f 42 165 204
f 879 874 877
f 827 865 211
f 816 787 815
f 811 207 54
f 206 54 207
f 207 812 206
f 822 813 812
f 820 209 819
f 863 861 859
f 864 831 832
f 823 208 822
f 55 210 821
f 833 821 828
f 836 833 212
f 223 224 850
f 846 847 57
f 1009 842 973
f 218 847 213
f 848 216 217
f 957 234 240
f 848 845 215
f 950 240 951
f 964 844 845
f 839 837 836
f 860 857 858
f 870 853 852
f 58 863 220
f 881 878 880
f 955 890 953
f 851 57 56
f 868 205 804
f 960 883 887
f 222 224 223
f 849 57 850
f 917 228 233
f 956 234 957
f 898 227 893
f 917 916 920
f 893 227 891
f 60 225 892
f 930 230 387
f 928 913 230
f 903 909 902
f 61 27 918
f 372 371 370
f 369 89 364
f 5 364 89
f 922 63 233
f 926 927 235
f 926 235 62
f 917 233 916
f 228 910 915
f 952 238 951
f 244 963 964
f 231 932 933
f 236 931 369
f 303 298 299
f 932 231 929
f 925 235 933
f 62 944 943
f 18 950 951
f 975 239 981
f 944 946 943
f 951 240 234
f 978 239 245
f 888 887 889
f 893 886 226
f 960 887 888
f 967 966 949
f 962 960 243
f 966 957 240
f 216 962 217
f 958 242 241
f 949 950 948
f 969 214 968
f 973 971 972
f 947 978 245
f 991 986 987
f 1001 974 980
f 997 250 247
f 21 293 22
f 997 6 250
f 997 996 993
f 1007 294 284
f 247 250 1005
f 283 1003 1004
f 977 1002 1005
f 976 977 1003
f 1010 841 1009
f 267 251 66
f 257 253 79
f 251 252 66
f 254 65 252
f 79 253 251
f 104 254 253
f 253 254 252
f 104 31 254
f 256 255 433
f 253 257 104
f 327 263 264
f 79 267 268
f 256 104 257
f 257 266 259
f 330 329 19
f 257 259 256
f 257 79 266
f 259 260 256
f 263 258 264
f 432 261 80
f 260 259 263
f 263 327 261
f 329 326 19
f 260 263 261
f 259 258 263
f 76 264 258
f 76 325 264
f 258 265 76
f 267 79 251
f 258 266 265
f 258 259 266
f 269 270 271
f 268 266 79
f 268 265 266
f 273 270 269
f 265 268 270
f 268 271 270
f 269 271 66
f 271 267 66
f 278 272 277
f 275 276 278
f 272 276 269
f 275 278 274
f 20 78 273
f 319 274 279
f 279 70 319
f 273 276 20
f 20 276 275
f 273 269 276
f 69 278 277
f 274 278 69
f 276 272 278
f 69 279 274
f 279 281 280
f 74 70 280
f 280 281 68
f 69 277 282
f 68 283 71
f 1007 293 294
f 72 71 284
f 292 285 21
f 72 284 285
f 73 318 72
f 73 287 318
f 286 68 71
f 280 68 286
f 317 287 288
f 23 316 314
f 287 73 289
f 291 289 73
f 288 287 289
f 298 290 297
f 303 304 305
f 292 291 73
f 290 306 291
f 72 318 286
f 287 317 318
f 72 292 73
f 72 285 292
f 294 293 21
f 989 990 988
f 284 294 285
f 1007 1006 249
f 988 990 987
f 296 293 248
f 299 296 295
f 22 293 296
f 21 297 292
f 22 298 297
f 299 298 22
f 302 300 301
f 296 299 22
f 295 300 302
f 88 301 362
f 302 303 299
f 362 301 300
f 354 355 353
f 295 302 299
f 303 305 298
f 301 361 302
f 361 301 365
f 361 304 303
f 366 359 5
f 298 305 290
f 355 87 353
f 2 315 308
f 315 289 306
f 290 307 306
f 305 304 309
f 307 308 306
f 307 309 355
f 305 309 307
f 304 356 309
f 314 310 23
f 355 308 307
f 2 311 310
f 86 352 311
f 85 312 23
f 329 262 327
f 312 313 23
f 321 70 74
f 313 316 23
f 315 306 308
f 288 315 314
f 288 289 315
f 314 316 288
f 320 74 318
f 316 317 288
f 320 318 317
f 74 286 318
f 323 319 75
f 324 274 319
f 313 320 316
f 313 322 321
f 313 321 320
f 75 70 321
f 321 322 75
f 313 312 322
f 326 325 323
f 325 324 323
f 274 324 275
f 319 323 324
f 324 325 77
f 323 19 326
f 330 328 329
f 264 325 326
f 326 327 264
f 262 261 327
f 331 328 330
f 332 84 83
f 262 329 328
f 327 326 329
f 322 330 19
f 312 85 331
f 312 331 330
f 85 84 332
f 85 332 331
f 338 24 81
f 336 333 335
f 328 331 333
f 80 334 431
f 334 336 335
f 80 336 334
f 333 332 338
f 262 336 80
f 262 328 336
f 83 337 24
f 352 86 351
f 333 338 335
f 83 24 338
f 334 335 339
f 100 429 101
f 339 340 429
f 9 340 339
f 342 82 341
f 9 342 340
f 344 98 97
f 340 342 341
f 9 337 342
f 98 343 99
f 25 350 349
f 82 344 341
f 82 25 344
f 379 408 346
f 97 98 345
f 378 379 347
f 345 99 346
f 377 378 95
f 346 91 347
f 99 348 91
f 343 26 348
f 343 349 26
f 343 25 349
f 353 350 86
f 25 82 350
f 82 351 350
f 337 83 352
f 337 352 351
f 83 84 352
f 349 353 87
f 349 350 353
f 308 354 2
f 353 86 354
f 87 355 309
f 354 308 355
f 360 356 304
f 26 87 356
f 348 357 90
f 26 356 357
f 356 360 357
f 366 5 89
f 360 365 358
f 88 5 359
f 361 360 304
f 358 357 360
f 302 361 303
f 301 88 365
f 988 362 300
f 936 236 364
f 362 363 88
f 936 237 236
f 363 364 5
f 363 936 364
f 359 365 88
f 359 358 365
f 17 367 89
f 375 90 358
f 93 367 17
f 92 366 367
f 930 370 929
f 17 89 369
f 236 369 364
f 368 17 369
f 387 370 930
f 930 231 928
f 17 371 93
f 17 368 371
f 386 372 387
f 373 93 371
f 399 388 395
f 28 93 373
f 92 374 95
f 92 367 374
f 92 375 366
f 92 376 375
f 90 376 91
f 90 375 376
f 378 377 96
f 95 374 377
f 95 378 347
f 96 380 378
f 382 381 96
f 407 408 379
f 378 380 379
f 404 403 38
f 96 381 380
f 412 413 405
f 381 382 16
f 384 377 28
f 398 400 390
f 382 96 384
f 382 384 383
f 96 377 384
f 372 386 389
f 383 384 385
f 392 388 94
f 389 373 372
f 386 387 94
f 372 370 387
f 388 399 391
f 386 94 388
f 388 391 386
f 385 373 389
f 385 390 383
f 385 389 390
f 389 391 390
f 389 386 391
f 230 913 912
f 155 395 392
f 611 609 610
f 392 94 912
f 906 904 905
f 606 152 153
f 399 395 154
f 388 392 395
f 155 396 395
f 608 614 607
f 153 586 154
f 400 383 390
f 391 398 390
f 402 148 400
f 397 399 154
f 398 391 399
f 397 402 398
f 148 147 401
f 382 401 16
f 382 383 401
f 398 402 400
f 397 586 588
f 16 403 381
f 16 1 403
f 579 572 574
f 408 409 345
f 404 38 577
f 403 404 406
f 409 29 97
f 403 406 381
f 405 407 406
f 380 407 379
f 380 406 407
f 346 408 345
f 410 405 413
f 407 410 408
f 410 101 409
f 408 410 409
f 407 405 410
f 409 101 29
f 410 413 101
f 577 411 412
f 411 415 412
f 494 115 490
f 114 413 33
f 114 428 413
f 418 414 416
f 422 30 414
f 493 492 411
f 416 414 33
f 492 417 415
f 491 489 110
f 490 417 492
f 486 111 419
f 421 422 419
f 416 417 491
f 421 419 458
f 491 417 489
f 453 424 420
f 112 421 459
f 113 421 112
f 422 414 418
f 113 422 421
f 113 30 422
f 427 113 423
f 453 455 452
f 452 443 105
f 442 426 425
f 426 102 425
f 423 102 426
f 427 428 30
f 428 114 30
f 30 113 427
f 428 442 100
f 428 100 101
f 428 426 442
f 436 103 437
f 434 438 255
f 429 430 339
f 101 429 340
f 339 430 334
f 438 103 439
f 430 431 334
f 430 429 435
f 260 432 255
f 260 261 432
f 256 433 104
f 255 432 434
f 430 435 431
f 437 438 434
f 431 435 434
f 429 436 435
f 100 436 429
f 435 437 434
f 435 436 437
f 255 438 433
f 437 103 438
f 433 439 31
f 441 105 440
f 31 440 7
f 439 103 441
f 439 441 440
f 103 436 441
f 100 441 436
f 105 442 425
f 441 100 442
f 425 424 452
f 442 105 441
f 65 8 66
f 8 106 447
f 106 8 445
f 451 455 456
f 445 8 105
f 444 445 443
f 444 106 445
f 107 463 467
f 444 446 106
f 444 449 446
f 449 456 108
f 484 460 461
f 107 449 108
f 444 450 449
f 444 443 450
f 424 453 452
f 450 443 451
f 452 451 443
f 459 454 420
f 455 451 452
f 460 454 459
f 453 420 454
f 454 457 453
f 448 108 456
f 450 456 449
f 450 451 456
f 455 457 448
f 455 453 457
f 461 458 111
f 460 459 458
f 112 459 420
f 421 458 459
f 461 460 458
f 462 454 460
f 487 480 479
f 469 109 464
f 32 469 470
f 465 457 462
f 108 463 107
f 108 448 464
f 469 464 465
f 463 108 464
f 470 469 465
f 464 448 465
f 446 466 447
f 107 467 466
f 463 468 467
f 462 470 465
f 32 109 469
f 484 470 462
f 478 118 477
f 472 471 473
f 468 109 32
f 122 472 117
f 32 483 471
f 485 484 461
f 478 475 474
f 117 473 482
f 476 475 507
f 475 478 477
f 117 476 122
f 117 474 476
f 119 477 118
f 119 121 477
f 117 482 474
f 488 110 489
f 487 110 480
f 478 474 479
f 478 480 118
f 479 481 487
f 111 481 461
f 485 473 483
f 479 482 481
f 479 474 482
f 484 483 470
f 473 471 483
f 460 484 462
f 461 481 485
f 482 485 481
f 483 484 485
f 418 486 419
f 110 487 486
f 111 487 481
f 111 486 487
f 116 497 115
f 480 110 488
f 498 489 490
f 110 486 491
f 498 490 115
f 489 417 490
f 418 491 486
f 418 416 491
f 411 492 415
f 494 490 492
f 575 494 493
f 116 495 496
f 493 494 492
f 115 494 495
f 575 496 495
f 570 116 496
f 554 553 120
f 116 554 120
f 498 497 499
f 116 120 497
f 497 498 115
f 488 489 498
f 488 499 118
f 488 498 499
f 499 500 119
f 499 497 500
f 120 501 500
f 500 502 119
f 501 124 502
f 501 120 553
f 555 503 553
f 124 501 504
f 503 501 553
f 504 505 124
f 508 123 506
f 505 508 506
f 505 506 124
f 123 121 506
f 122 507 123
f 507 122 476
f 468 471 472
f 508 122 123
f 549 552 551
f 129 544 511
f 544 504 549
f 504 129 126
f 505 504 126
f 729 127 183
f 729 126 127
f 127 184 183
f 184 509 183
f 184 182 509
f 504 544 129
f 544 512 511
f 511 512 513
f 516 130 129
f 129 511 510
f 521 522 131
f 545 512 544
f 511 513 542
f 512 538 543
f 542 514 510
f 515 128 130
f 519 515 516
f 518 707 517
f 130 516 515
f 510 514 516
f 184 517 182
f 128 515 518
f 706 703 705
f 517 128 518
f 520 519 521
f 10 515 519
f 524 520 521
f 4 10 520
f 524 521 131
f 519 514 521
f 542 522 514
f 521 514 522
f 529 530 531
f 540 522 541
f 520 524 704
f 526 178 528
f 703 700 702
f 704 524 525
f 131 526 524
f 131 540 527
f 526 527 178
f 526 131 527
f 697 528 173
f 525 526 528
f 599 529 177
f 178 527 530
f 523 530 527
f 523 532 531
f 529 531 134
f 530 523 531
f 531 532 133
f 540 131 522
f 133 533 15
f 567 137 136
f 132 536 533
f 535 591 592
f 567 535 561
f 534 533 536
f 534 536 535
f 561 559 137
f 533 537 132
f 533 133 537
f 546 538 545
f 543 541 513
f 532 539 35
f 532 523 539
f 523 540 539
f 523 527 540
f 512 543 513
f 539 540 541
f 541 542 513
f 541 522 542
f 35 543 538
f 35 539 543
f 125 545 544
f 125 546 545
f 132 546 125
f 132 537 546
f 548 558 559
f 558 548 549
f 547 544 548
f 549 548 544
f 558 549 550
f 557 550 138
f 549 551 550
f 138 551 36
f 551 552 36
f 555 553 140
f 116 570 554
f 141 140 554
f 569 555 140
f 36 552 555
f 137 557 136
f 139 143 556
f 556 557 138
f 556 136 557
f 557 558 550
f 557 137 558
f 548 559 547
f 558 137 559
f 132 560 536
f 132 125 560
f 536 561 535
f 536 560 561
f 566 565 564
f 591 535 567
f 135 563 562
f 564 144 563
f 566 564 563
f 583 578 1
f 135 566 563
f 580 572 579
f 143 566 135
f 143 142 573
f 562 567 136
f 562 591 567
f 146 568 141
f 146 145 568
f 568 569 140
f 568 142 569
f 571 570 496
f 141 554 570
f 575 571 496
f 146 141 571
f 578 38 1
f 37 145 572
f 37 573 145
f 37 565 573
f 146 574 572
f 571 575 574
f 411 576 493
f 579 574 576
f 580 579 578
f 584 582 581
f 581 37 580
f 577 579 576
f 577 578 579
f 583 580 578
f 37 572 580
f 589 149 144
f 582 565 581
f 583 584 581
f 584 585 582
f 147 583 1
f 581 580 583
f 147 584 583
f 147 148 584
f 148 585 584
f 148 402 585
f 154 586 397
f 153 152 587
f 595 594 152
f 149 586 587
f 397 588 402
f 586 149 588
f 585 589 582
f 585 588 589
f 592 591 150
f 563 144 590
f 590 591 562
f 590 150 591
f 593 592 150
f 151 534 592
f 39 594 150
f 134 600 529
f 152 594 587
f 593 150 594
f 594 595 593
f 615 602 613
f 600 596 601
f 607 604 605
f 595 597 593
f 595 604 597
f 597 598 151
f 597 596 598
f 617 599 177
f 178 530 599
f 529 600 177
f 598 596 600
f 597 604 596
f 618 175 174
f 614 602 607
f 615 601 603
f 596 603 601
f 604 595 605
f 596 604 603
f 595 152 605
f 606 605 152
f 607 603 604
f 396 606 153
f 396 394 606
f 608 607 605
f 602 603 607
f 394 608 606
f 905 610 614
f 394 906 905
f 631 156 159
f 614 610 609
f 904 61 908
f 631 612 630
f 610 904 908
f 615 613 176
f 630 611 156
f 176 613 612
f 602 609 613
f 602 614 609
f 608 394 905
f 175 616 176
f 603 602 615
f 615 616 601
f 615 176 616
f 696 617 618
f 177 616 617
f 696 618 173
f 617 175 618
f 618 619 173
f 622 40 41
f 175 620 174
f 176 612 620
f 174 621 619
f 174 620 629
f 40 622 621
f 655 158 654
f 624 623 622
f 686 45 685
f 626 625 624
f 688 45 686
f 658 689 656
f 624 622 626
f 41 626 622
f 41 158 626
f 40 627 41
f 634 632 160
f 40 628 627
f 157 631 632
f 621 629 40
f 620 157 629
f 613 630 612
f 609 611 630
f 612 631 157
f 630 156 631
f 160 632 159
f 628 157 632
f 161 633 160
f 898 896 897
f 633 634 160
f 59 627 634
f 41 635 158
f 627 59 635
f 654 636 637
f 158 635 636
f 645 652 653
f 636 166 637
f 636 638 166
f 59 633 897
f 896 894 162
f 895 885 880
f 165 642 164
f 643 639 163
f 874 873 641
f 871 878 853
f 164 642 640
f 165 42 647
f 642 644 640
f 166 639 643
f 640 644 643
f 642 165 647
f 642 645 644
f 654 167 655
f 647 646 645
f 652 172 167
f 642 647 645
f 42 169 650
f 795 780 665
f 170 664 649
f 796 649 169
f 648 170 649
f 42 650 647
f 169 171 650
f 168 651 646
f 664 171 649
f 646 652 645
f 646 651 652
f 644 653 637
f 652 167 653
f 167 654 653
f 158 636 654
f 172 656 167
f 626 158 655
f 657 658 172
f 625 655 656
f 662 659 657
f 44 658 657
f 172 658 656
f 44 45 688
f 657 659 44
f 662 651 168
f 663 660 662
f 661 668 677
f 194 668 195
f 668 192 677
f 659 662 660
f 657 651 662
f 171 663 168
f 661 660 663
f 171 664 663
f 170 195 664
f 648 665 170
f 780 781 779
f 669 667 666
f 666 780 779
f 670 778 774
f 194 195 667
f 195 668 661
f 194 191 676
f 191 669 196
f 194 667 669
f 669 671 196
f 780 666 665
f 196 671 670
f 669 666 671
f 670 672 196
f 769 43 672
f 765 673 43
f 674 191 673
f 676 674 675
f 766 757 50
f 765 758 764
f 685 180 711
f 194 676 668
f 191 674 676
f 675 763 192
f 678 660 677
f 687 678 681
f 687 659 678
f 764 759 762
f 681 678 679
f 763 680 679
f 714 715 713
f 687 681 682
f 679 680 681
f 687 682 45
f 681 680 713
f 702 700 683
f 525 528 697
f 700 684 683
f 686 685 683
f 180 685 682
f 683 684 686
f 686 692 688
f 688 658 44
f 44 687 45
f 44 659 687
f 692 693 691
f 689 625 656
f 692 684 693
f 691 625 689
f 695 690 694
f 623 624 690
f 625 691 624
f 689 688 692
f 689 692 691
f 686 684 692
f 690 693 694
f 690 691 693
f 695 694 697
f 693 684 701
f 619 695 173
f 619 623 695
f 528 696 173
f 599 617 696
f 695 697 173
f 701 684 700
f 697 698 525
f 697 694 698
f 520 704 4
f 699 701 700
f 711 702 683
f 699 698 701
f 694 701 698
f 694 693 701
f 712 709 710
f 703 699 700
f 705 703 702
f 4 699 703
f 698 704 525
f 699 4 704
f 710 708 705
f 707 518 706
f 4 706 10
f 4 703 706
f 705 707 706
f 182 517 707
f 726 708 709
f 707 705 708
f 716 715 714
f 717 11 724
f 711 710 702
f 709 708 710
f 685 711 683
f 180 712 711
f 711 712 710
f 716 714 181
f 682 713 180
f 682 681 713
f 680 714 713
f 181 179 716
f 180 715 712
f 180 713 715
f 717 716 179
f 725 715 716
f 725 717 724
f 34 738 737
f 181 718 179
f 740 756 753
f 718 719 721
f 719 755 754
f 738 722 721
f 742 47 752
f 179 721 722
f 179 718 721
f 717 722 11
f 717 179 722
f 722 723 11
f 34 185 723
f 727 726 724
f 726 709 724
f 715 725 712
f 716 717 725
f 11 727 724
f 182 708 726
f 723 728 11
f 509 726 727
f 727 728 183
f 727 11 728
f 728 729 183
f 126 729 186
f 34 730 186
f 733 188 731
f 731 730 736
f 126 186 508
f 746 187 744
f 188 732 731
f 188 187 732
f 730 737 736
f 735 720 739
f 733 734 188
f 755 719 718
f 736 735 733
f 737 720 735
f 730 34 737
f 736 737 735
f 34 723 738
f 737 738 720
f 723 722 738
f 735 739 734
f 720 719 739
f 756 740 754
f 739 719 754
f 743 744 48
f 187 188 745
f 741 742 48
f 741 745 753
f 746 744 12
f 48 49 743
f 48 744 741
f 743 12 744
f 187 745 741
f 734 740 745
f 732 187 746
f 13 747 49
f 743 49 189
f 751 752 749
f 748 767 768
f 751 748 750
f 768 197 770
f 757 749 50
f 757 767 749
f 751 750 747
f 748 751 749
f 747 13 751
f 13 752 751
f 47 50 752
f 742 753 47
f 742 741 753
f 756 754 46
f 740 739 754
f 754 755 46
f 718 181 760
f 193 756 46
f 47 753 756
f 193 758 766
f 757 769 767
f 755 759 46
f 765 674 673
f 760 759 755
f 760 761 762
f 714 761 181
f 762 761 763
f 181 761 760
f 714 680 761
f 764 762 675
f 759 760 762
f 192 763 679
f 675 762 763
f 674 764 675
f 758 759 764
f 757 766 43
f 764 674 765
f 765 766 758
f 765 43 766
f 749 767 748
f 757 43 769
f 767 197 768
f 773 769 672
f 197 767 769
f 773 772 197
f 772 775 770
f 768 770 198
f 189 49 190
f 750 198 190
f 750 768 198
f 786 817 198
f 817 819 209
f 198 200 786
f 784 198 771
f 190 198 817
f 819 817 822
f 14 785 200
f 777 771 199
f 776 777 199
f 197 772 770
f 774 199 772
f 769 773 197
f 672 670 773
f 773 774 772
f 670 671 778
f 770 775 198
f 772 199 775
f 51 776 201
f 51 777 776
f 14 777 51
f 14 200 784
f 776 778 201
f 776 774 778
f 778 779 201
f 778 671 779
f 648 795 665
f 793 52 792
f 793 781 780
f 782 201 781
f 203 53 789
f 783 51 782
f 14 783 785
f 791 792 789
f 14 784 777
f 200 785 786
f 792 782 781
f 206 814 54
f 785 787 816
f 785 783 787
f 815 788 814
f 789 52 203
f 787 791 788
f 791 783 782
f 793 794 52
f 798 799 807
f 788 791 789
f 787 783 791
f 789 792 52
f 791 782 792
f 797 794 795
f 792 781 793
f 52 794 790
f 793 795 794
f 649 796 648
f 793 780 795
f 648 796 797
f 169 42 801
f 648 797 795
f 801 42 204
f 3 803 802
f 790 794 798
f 807 799 806
f 798 800 799
f 802 800 801
f 798 797 800
f 796 801 800
f 796 169 801
f 3 802 204
f 799 800 802
f 867 806 205
f 799 802 803
f 803 804 205
f 3 641 873
f 807 806 805
f 865 810 211
f 803 806 799
f 803 205 806
f 790 807 202
f 790 798 807
f 805 809 202
f 54 53 808
f 808 809 811
f 867 205 220
f 805 810 809
f 866 211 810
f 808 811 54
f 809 810 865
f 826 824 825
f 206 812 813
f 814 53 54
f 815 814 813
f 788 53 814
f 787 788 815
f 785 816 786
f 815 818 816
f 816 818 817
f 815 813 818
f 812 823 822
f 822 817 818
f 820 208 210
f 208 820 819
f 210 55 834
f 830 833 828
f 210 208 829
f 208 819 822
f 864 832 211
f 829 208 823
f 210 829 821
f 825 812 207
f 829 825 824
f 823 812 825
f 207 826 825
f 207 811 826
f 826 827 824
f 826 865 827
f 832 828 827
f 821 824 828
f 825 829 823
f 824 821 829
f 833 830 212
f 212 831 859
f 830 828 832
f 211 832 827
f 831 830 832
f 830 831 212
f 55 821 833
f 834 820 210
f 835 820 834
f 836 55 833
f 209 820 835
f 834 55 836
f 835 834 836
f 836 212 858
f 858 847 218
f 858 218 836
f 847 56 57
f 219 856 56
f 858 56 847
f 839 836 218
f 840 838 839
f 837 839 838
f 218 213 839
f 213 840 839
f 842 844 969
f 840 841 838
f 840 215 843
f 973 842 969
f 841 840 843
f 846 215 213
f 842 843 844
f 842 841 843
f 969 844 214
f 843 215 845
f 964 845 217
f 844 843 845
f 849 848 846
f 848 215 846
f 213 847 846
f 845 848 217
f 846 57 849
f 216 849 224
f 216 848 849
f 852 882 851
f 224 849 850
f 852 851 856
f 850 57 851
f 862 869 854
f 882 850 851
f 221 854 870
f 876 877 875
f 862 854 855
f 870 852 221
f 862 855 58
f 854 221 857
f 852 856 221
f 851 56 856
f 858 857 219
f 855 854 857
f 56 858 219
f 212 860 858
f 864 859 831
f 861 860 212
f 859 861 212
f 855 857 860
f 855 861 58
f 855 860 861
f 220 868 58
f 868 872 862
f 866 863 864
f 58 861 863
f 866 864 211
f 863 859 864
f 811 865 826
f 811 809 865
f 867 866 810
f 220 863 866
f 805 867 810
f 805 806 867
f 58 868 862
f 220 205 868
f 872 869 862
f 874 641 164
f 869 870 854
f 869 871 870
f 870 871 853
f 869 872 879
f 804 872 868
f 804 3 873
f 879 873 874
f 872 804 873
f 875 874 164
f 223 881 884
f 640 875 164
f 895 639 894
f 877 876 878
f 875 163 876
f 869 879 871
f 874 875 877
f 877 878 871
f 223 884 222
f 871 879 877
f 872 873 879
f 876 880 878
f 885 226 64
f 882 881 223
f 853 878 881
f 853 882 852
f 853 881 882
f 64 883 222
f 64 226 886
f 222 884 64
f 881 880 884
f 876 895 880
f 895 163 639
f 893 891 886
f 889 892 890
f 242 888 955
f 883 886 887
f 243 888 242
f 243 960 888
f 955 889 890
f 887 886 891
f 920 954 921
f 889 891 892
f 892 891 227
f 889 887 891
f 60 892 227
f 225 890 892
f 894 896 226
f 896 898 893
f 162 894 639
f 226 885 894
f 885 895 894
f 876 163 895
f 897 896 162
f 893 226 896
f 59 897 638
f 633 161 898
f 633 898 897
f 161 227 898
f 909 908 229
f 900 60 899
f 903 900 899
f 918 27 228
f 920 901 917
f 919 902 901
f 903 902 900
f 229 901 902
f 159 903 899
f 159 156 903
f 905 904 610
f 907 61 904
f 608 905 614
f 394 155 906
f 393 906 155
f 393 907 906
f 906 907 904
f 912 94 230
f 902 909 229
f 611 610 908
f 156 909 903
f 156 611 909
f 911 910 27
f 914 928 232
f 907 911 27
f 907 393 911
f 393 912 911
f 393 392 912
f 911 913 910
f 911 912 913
f 910 914 915
f 910 913 914
f 228 915 233
f 914 232 927
f 954 920 916
f 233 63 916
f 920 919 901
f 901 918 917
f 229 918 901
f 229 61 918
f 900 919 225
f 900 902 919
f 954 953 921
f 921 919 920
f 225 921 890
f 225 919 921
f 915 922 233
f 926 62 943
f 956 923 234
f 916 63 923
f 922 924 63
f 943 238 924
f 938 985 237
f 62 235 925
f 922 926 924
f 922 927 926
f 915 927 922
f 915 914 927
f 232 928 231
f 914 913 928
f 368 929 370
f 368 369 931
f 231 930 929
f 928 230 930
f 929 931 932
f 929 368 931
f 236 935 931
f 933 232 231
f 935 934 932
f 235 232 933
f 933 934 925
f 933 932 934
f 931 935 932
f 236 237 935
f 362 937 363
f 363 937 936
f 936 937 938
f 994 295 296
f 936 938 237
f 989 300 295
f 983 984 985
f 941 934 939
f 239 978 979
f 985 939 237
f 942 941 940
f 925 934 941
f 925 942 62
f 981 945 980
f 926 943 924
f 62 942 944
f 940 945 942
f 946 238 943
f 942 945 944
f 1000 999 983
f 945 979 944
f 18 238 946
f 972 947 245
f 948 950 947
f 969 968 967
f 963 244 959
f 971 969 970
f 965 959 958
f 947 950 18
f 949 240 950
f 952 951 234
f 238 18 951
f 63 952 923
f 924 238 952
f 955 953 241
f 890 921 953
f 923 954 916
f 923 956 954
f 242 955 241
f 888 889 955
f 953 956 241
f 953 954 956
f 241 957 958
f 241 956 957
f 966 958 957
f 959 242 958
f 243 959 244
f 243 242 959
f 962 961 960
f 961 883 960
f 222 961 224
f 222 883 961
f 244 962 243
f 216 961 962
f 967 968 965
f 214 844 964
f 244 964 217
f 963 214 964
f 967 965 966
f 963 959 965
f 949 966 240
f 965 958 966
f 948 970 949
f 968 963 965
f 970 969 967
f 214 963 968
f 973 969 971
f 949 970 967
f 975 977 239
f 970 948 971
f 948 972 971
f 948 947 972
f 976 972 245
f 977 975 1002
f 1002 246 1005
f 975 974 1002
f 999 1001 982
f 981 980 974
f 984 940 941
f 973 972 976
f 245 977 976
f 245 239 977
f 18 978 947
f 18 946 978
f 946 979 978
f 946 944 979
f 975 981 974
f 945 940 980
f 979 981 239
f 979 945 981
f 1000 992 998
f 980 940 982
f 1000 998 999
f 982 940 984
f 939 984 941
f 983 982 984
f 986 985 938
f 984 939 985
f 992 247 246
f 983 985 986
f 300 989 988
f 986 938 987
f 937 988 987
f 937 362 988
f 248 995 994
f 996 247 992
f 987 990 991
f 994 296 248
f 986 991 1000
f 995 248 249
f 996 990 993
f 997 993 995
f 990 989 993
f 989 994 993
f 989 295 994
f 994 995 993
f 249 6 995
f 991 996 992
f 991 990 996
f 6 997 995
f 247 996 997
f 246 998 992
f 1002 974 1001
f 983 999 982
f 986 1000 983
f 991 992 1000
f 982 1001 980
f 999 998 1002
f 999 1002 1001
f 998 246 1002
f 250 1004 1003
f 250 6 1004
f 247 1005 246
f 250 1003 1005
f 1006 1007 284
f 248 1007 249
f 248 293 1007
f 6 1008 1004
f 6 249 1008
f 283 1004 1008
f 973 976 1003
f 1003 977 1005
f 841 842 1009
f 838 841 1010
f 838 1010 837
f 1010 973 1003
f 1010 1009 973
